<?xml version="1.0" standalone="no"?>
<!DOCTYPE svg PUBLIC "-//W3C//DTD SVG 20010904//EN"
 "http://www.w3.org/TR/2001/REC-SVG-20010904/DTD/svg10.dtd">
<svg version="1.0" xmlns="http://www.w3.org/2000/svg"
 width="100.000000pt" height="100.000000pt" viewBox="0 0 100.000000 100.000000"
 preserveAspectRatio="xMidYMid meet">
<metadata>
Created by potrace 1.11, written by Peter Selinger 2001-2013
</metadata>
<g transform="translate(0.000000,100.000000) scale(0.100000,-0.100000)"
fill="#000000" stroke="none">
<path d="M283 856 l2 -131 120 -2 c149 -2 170 -6 228 -43 54 -34 87 -90 91
-158 6 -100 -38 -177 -126 -224 -38 -19 -58 -22 -178 -23 l-135 0 -1 218 c0
119 -3 220 -6 223 -5 5 -84 6 -229 4 l-37 0 2 -225 c2 -124 5 -228 9 -231 3
-4 1 -16 -5 -27 -8 -16 -8 -22 1 -25 6 -2 11 -8 11 -13 0 -6 -3 -8 -7 -6 -5 3
-8 -10 -8 -29 0 -19 3 -34 7 -34 8 0 5 -21 -5 -38 -5 -7 -3 -12 3 -12 7 0 8
-6 1 -18 -6 -11 -6 -24 0 -34 8 -14 39 -16 282 -16 172 0 277 4 285 10 6 6 12
8 12 4 0 -11 115 37 165 69 107 69 179 179 211 321 14 66 15 89 6 150 -17 109
-67 208 -145 287 -46 46 -183 117 -227 117 -11 0 -20 4 -20 9 0 5 -67 9 -154
9 l-154 0 1 -132z"/>
<path d="M62 863 l3 -78 77 -1 78 -1 -3 76 -2 76 -78 3 -78 3 3 -78z"/>
</g>
</svg>
