<?xml version="1.0" encoding="utf-8"?>
<!-- Generator: Adobe Illustrator 24.2.3, SVG Export Plug-In . SVG Version: 6.00 Build 0)  -->
<svg version="1.1" id="Capa_1" xmlns="http://www.w3.org/2000/svg" xmlns:xlink="http://www.w3.org/1999/xlink" x="0px" y="0px"
	 viewBox="0 0 265 409" style="enable-background:new 0 0 265 409;" xml:space="preserve">
<path d="M90,22.1c18.7,18.7,18.7,49.1,0,67.9s-49.1,18.7-67.9,0s-18.7-49.1,0-67.9C40.8,3.3,71.2,3.3,90,22.1"/>
<path id="path-1_4_" d="M240.9,21.9c18.7,18.7,18.7,49.1,0,67.9s-49.1,18.7-67.9,0s-18.7-49.1,0-67.9
	C191.8,3.2,222.2,3.2,240.9,21.9"/>
<path id="path-2" d="M92,170.8c18.7,18.7,18.7,49.1,0,67.9s-49.1,18.7-67.9,0c-18.7-18.7-18.7-49.1,0-67.9
	C42.9,152.1,73.3,152.1,92,170.8"/>
<path id="path-3" d="M240.9,170.8c18.7,18.7,18.7,49.1,0,67.9s-49.1,18.7-67.9,0c-18.7-18.7-18.7-49.1,0-67.9
	S222.2,152.1,240.9,170.8"/>
<path id="path-2_1_" d="M92,319.8c18.7,18.7,18.7,49.1,0,67.9c-18.7,18.7-49.1,18.7-67.9,0c-18.7-18.7-18.7-49.1,0-67.9
	C42.9,301,73.3,301,92,319.8"/>
<path id="path-3_2_" d="M240.9,319.8c18.7,18.7,18.7,49.1,0,67.9c-18.7,18.7-49.1,18.7-67.9,0c-18.7-18.7-18.7-49.1,0-67.9
	C191.8,301,222.2,301,240.9,319.8"/>
</svg>
