<?xml version="1.0" encoding="utf-8"?>
<!-- Generator: Adobe Illustrator 24.2.3, SVG Export Plug-In . SVG Version: 6.00 Build 0)  -->
<svg version="1.1" id="Layer_1" xmlns="http://www.w3.org/2000/svg" xmlns:xlink="http://www.w3.org/1999/xlink" x="0px" y="0px"
	 viewBox="0 0 512 512" style="enable-background:new 0 0 512 512;" xml:space="preserve">
<style type="text/css">
	.st0{fill:#66BB6A;}
</style>
<path class="st0" d="M469.4,249.7c-13.8-9.7-29.5-20.7-59.8-20.7c-30.3,0-46,11-59.8,20.7c-12.1,8.5-21.7,15.3-42.6,15.3
	c-20.9,0-30.4-6.7-42.6-15.3c-13.8-9.7-29.5-20.7-59.8-20.7c-30.3,0-46,11-59.8,20.7c-12.1,8.5-21.7,15.3-42.6,15.3
	s-30.4-6.7-42.6-15.3C46,240,30.3,229,0,229v30c20.9,0,30.4,6.7,42.6,15.3C56.4,284,72.1,295,102.4,295c30.3,0,46-11,59.8-20.7
	c12.1-8.5,21.7-15.3,42.6-15.3c20.9,0,30.4,6.7,42.6,15.3c13.8,9.7,29.5,20.7,59.8,20.7c30.3,0,46-11,59.8-20.7
	c12.1-8.5,21.7-15.3,42.6-15.3s30.4,6.7,42.6,15.3C466,284,481.7,295,512,295v-30C491.1,265,481.6,258.3,469.4,249.7z"/>
</svg>
