<?xml version="1.0" encoding="utf-8"?>
<!-- Generator: Adobe Illustrator 24.2.3, SVG Export Plug-In . SVG Version: 6.00 Build 0)  -->
<svg version="1.1" id="Layer_1" xmlns="http://www.w3.org/2000/svg" xmlns:xlink="http://www.w3.org/1999/xlink" x="0px" y="0px"
	 viewBox="0 0 354 354" style="enable-background:new 0 0 354 354;" xml:space="preserve">
<style type="text/css">
	.st0{fill:#E24B4B;}
</style>
<path class="st0" d="M6.8,150C3,150,0,153,0,156.8v34c0,3.8,3,6.8,6.8,6.8c3.8,0,6.8-3,6.8-6.8v-34C13.6,153,10.6,150,6.8,150z"/>
<path class="st0" d="M40.9,122.1c-3.8,0-6.8,3.1-6.8,6.8v94.3c0,3.8,3.1,6.8,6.8,6.8c3.8,0,6.8-3,6.8-6.8v-94.3
	C47.7,125.1,44.6,122.1,40.9,122.1z"/>
<path class="st0" d="M74.9,75.1c-3.8,0-6.8,3-6.8,6.8v190.6c0,3.8,3.1,6.8,6.8,6.8s6.8-3.1,6.8-6.8V81.9
	C81.7,78.1,78.6,75.1,74.9,75.1z"/>
<path class="st0" d="M108.9,109.1c-3.8,0-6.8,3-6.8,6.8v115.7c0,3.8,3.1,6.8,6.8,6.8c3.8,0,6.8-3.1,6.8-6.8V115.9
	C115.7,112.2,112.7,109.1,108.9,109.1z"/>
<path class="st0" d="M211.7,92.6c-3.8,0-6.8,3-6.8,6.8v153.2c0,3.8,3,6.8,6.8,6.8c3.8,0,6.8-3,6.8-6.8V99.5
	C218.5,95.7,215.5,92.6,211.7,92.6z"/>
<path class="st0" d="M279.1,102.3c-3.8,0-6.8,3.1-6.8,6.8v136.2c0,3.8,3.1,6.8,6.8,6.8c3.8,0,6.8-3,6.8-6.8V109.1
	C285.9,105.4,282.9,102.3,279.1,102.3z"/>
<path class="st0" d="M313.2,136.4c-3.8,0-6.8,3.1-6.8,6.8v68.1c0,3.8,3.1,6.8,6.8,6.8c3.8,0,6.8-3.1,6.8-6.8v-68.1
	C320,139.4,316.9,136.4,313.2,136.4z"/>
<path class="st0" d="M245.1,47.9c-3.8,0-6.8,3.1-6.8,6.8v245.1c0,3.8,3,6.8,6.8,6.8c3.8,0,6.8-3,6.8-6.8V54.7
	C251.9,50.9,248.8,47.9,245.1,47.9z"/>
<path class="st0" d="M143,156.8c-3.8,0-6.8,3.1-6.8,6.8v27.2c0,3.8,3,6.8,6.8,6.8c3.8,0,6.8-3,6.8-6.8v-27.2
	C149.8,159.8,146.7,156.8,143,156.8z"/>
<path class="st0" d="M347.2,154.5c-3.8,0-6.8,3-6.8,6.8v29.5c0,3.8,3.1,6.8,6.8,6.8s6.8-3.1,6.8-6.8v-29.5
	C354,157.5,351,154.5,347.2,154.5z"/>
<path class="st0" d="M176.4,141.5c-3.8,0-6.8,3-6.8,6.8v55.4c0,3.8,3,6.8,6.8,6.8c3.8,0,6.8-3.1,6.8-6.8v-55.4
	C183.2,144.6,180.1,141.5,176.4,141.5z"/>
</svg>
