<svg id="Layer_1" data-name="Layer 1" xmlns="http://www.w3.org/2000/svg" viewBox="0 0 466.06 314.7"><defs><style>.cls-1{fill:#f4f8f9;}.cls-2{fill:#b6eaff;}.cls-3{fill:#f4e6df;}.cls-4{fill:#d8b3a3;}.cls-5{fill:#efd5ce;}.cls-6{fill:#ba9a85;}.cls-7{fill:#ffd3b3;}.cls-8{fill:#704a30;}.cls-9{fill:#f9f9f9;}.cls-10{fill:#fff;}.cls-11{fill:#6ed3ff;}.cls-12{fill:#00b1fd;}.cls-13{fill:#727272;}.cls-14{fill:#21201a;}.cls-15{fill:#dbdee7;}.cls-16{fill:#b3b3b3;}.cls-17{fill:none;stroke:#a5a5a5;stroke-linecap:round;stroke-miterlimit:8;stroke-width:1.19px;stroke-dasharray:3.58;}.cls-18{fill:#39788e;}.cls-19{fill:#71b8c9;}.cls-20{fill:#8fd3e5;}</style></defs><title>Empty State 500px</title><path class="cls-1" d="M137,263.6c.93,2.28,1.32,4.63,2,7a9.6,9.6,0,0,0,3.61,5c0-5.77,1.37-11.56,2.21-17.23h-1.22l-9.15,0C135.4,260,136.28,261.78,137,263.6Z" transform="translate(-17.9 -81.4)"/><path class="cls-1" d="M125.58,265.34a27.44,27.44,0,0,1,4.08,3.13c4.37,4.26,7.73,13.54,14.48,14.25-3.86-1.79-7.49-4.09-9.39-8.06-1.14-2.36-1.44-4.93-2.24-7.41a32,32,0,0,0-1.76-4.19,2.68,2.68,0,0,1-2.74-.64c-1.35-1.22-2.79-2.84-4.51-3.52s-2.65,1.36-2.07,2.9S124.27,264.48,125.58,265.34Z" transform="translate(-17.9 -81.4)"/><path class="cls-1" d="M364,259.87s0-.07,0-.11q-34.21-.31-68.43-.58-72.75-.56-145.49-.84a3.08,3.08,0,0,1,.11,1.37c-1,6.46-2.93,13.45-1.79,20a2.83,2.83,0,0,1-1.71,3.26c1.68.75,1.84,3.3.5,4.58-1.34,6.95.28,15.91,4.51,21.63a2.81,2.81,0,0,1,.42.8,3,3,0,0,1,2.54,3.41,38.66,38.66,0,0,0-.34,6.8c0,1.78,0,5.7,1.57,7,2,1.58,5.11-2.93,6.64-4.06,3.45-2.55,6.91-4.78,9.88-7.92a2.49,2.49,0,0,1,3.47-.27c4.17-.39,8.32,0,12.5.06a2.72,2.72,0,0,1,2.55,3.61,2.61,2.61,0,0,1,.12.5c.39,2.88,1.31,12.31,6,10.58,2.55-.94,4.82-3.48,6.62-5.4a29.2,29.2,0,0,0,4.66-6.13c1.23-2.34,4.17-1.4,4.93.52,8.6-1.17,18.9-.35,26.78-4.44,5.41-2.81,4.81-9.13,5.49-14.38a3.11,3.11,0,0,1,4.59-2.23,2.79,2.79,0,0,1,1.16-.23,98,98,0,0,1,15.95,1.29,2.37,2.37,0,0,1,1.75,3.49c5.51.89,11.06,1.61,16.6,2.38,10.85,1.49,21.18,6.1,32.22,6.26a2.78,2.78,0,0,1,1.41.39,2.71,2.71,0,0,1,.95.46c7.32-1.93,13.76-6.29,20.38-9.82,7.57-4,15.64-7,22.92-11.6C364.24,280.12,364,270,364,259.87Z" transform="translate(-17.9 -81.4)"/><path class="cls-1" d="M471.87,282.6a25.36,25.36,0,0,0-24.9-22q-38.72-.44-77.42-.8s0,0,0,.06c0,10.64.24,21.29-.6,31.91a2.73,2.73,0,0,1-1.51,2.3,2.91,2.91,0,0,1-.75.68c-7.65,4.89-16.19,8-24.14,12.3-7.29,3.95-14.5,8.72-22.76,10.35a2.7,2.7,0,0,1-2.72-1,395.73,395.73,0,0,1-60.79-11,2.93,2.93,0,0,1-.7-.28c-1.64-.37-3.27-.76-4.9-1.19-.53,5.26-1.3,10.5-6,13.85-8.22,5.9-20.37,4.82-29.9,6.12a2.93,2.93,0,0,1-2.77-1.15,42.19,42.19,0,0,1-6,7c-2.48,2.39-5.56,5.14-9.13,5.55-8.06.92-10.33-8.69-11.16-14.8a.49.49,0,0,1,0-.12,70.1,70.1,0,0,0-10.45.06,2.48,2.48,0,0,1-.38,0c-3.64,3.36-7.93,5.83-11.52,9.25-2.94,2.81-7.05,4.82-10.69,1.91-4.88-3.91-4.31-12.62-3.51-18.52A2.81,2.81,0,0,1,147,312c-4.74-6.42-6.43-16.08-5.35-24.08-4-1.07-7-4.09-9.58-7.48-1.67-2.18-3.15-4.52-5-6.6a30.05,30.05,0,0,0-6-4.83c-2.15-1.5-4.33-3.3-5.08-5.93a8.08,8.08,0,0,1,.24-4.83q-28.89-.09-57.79-.14a26.14,26.14,0,0,0-17.92,7.43c-4.4,4.39-7.71,11.61-7.43,17.92.62,13.76,11.14,25.33,25.35,25.36l15.09,0c-2,10.55,2.12,22.12,11.87,27.55,18.41,10.25,40.37,10.11,60.85,11.47q13,.87,25.92,1.53c-.12.19-.24.39-.34.58a26.21,26.21,0,0,0-3,16.17c.72,5.32,2.9,10.82,7,14.56l5.13,4a25.21,25.21,0,0,0,12.79,3.46A1214,1214,0,0,0,318.83,396q17.76.2,35.5-.12a26.32,26.32,0,0,0,17.93-7.43c4.39-4.39,7.7-11.61,7.42-17.92a27.78,27.78,0,0,0-4.1-13.33,40.54,40.54,0,0,0,14.65-10.44c2.8-3.33,5.34-6.92,6.52-11.19a24.3,24.3,0,0,0,.3-11.46c19-3.92,37.92-8.56,56.66-13.73A25.38,25.38,0,0,0,471.87,282.6Z" transform="translate(-17.9 -81.4)"/><polygon class="cls-2" points="0 176.41 112.22 174.72 112.24 176.36 0 176.41"/><polygon class="cls-2" points="391.84 171.92 466.06 172.61 466 174.89 391.84 171.92"/><path class="cls-2" d="M41.78,252.74q9.51-.24,19-.38l19-.24,19-.09h9.51l9.51.07v1.27l-9.51.07H98.85l-19-.1-19-.23Q51.29,253,41.78,252.74Z" transform="translate(-17.9 -81.4)"/><path class="cls-2" d="M390.67,311A106.86,106.86,0,0,1,403,309.77c4.13-.18,8.25-.29,12.39-.11l0,.8c-4.12.47-8.24.67-12.36.78A107,107,0,0,1,390.67,311Z" transform="translate(-17.9 -81.4)"/><path class="cls-2" d="M294.93,329.34a106.86,106.86,0,0,1,12.34-1.18c4.12-.19,8.25-.29,12.39-.11l0,.8c-4.11.47-8.23.66-12.36.77A106.88,106.88,0,0,1,294.93,329.34Z" transform="translate(-17.9 -81.4)"/><path class="cls-2" d="M100.27,285.59a11.5,11.5,0,0,1,2.39-.61c.41-.05.81-.12,1.22-.13a3.89,3.89,0,0,1,1.4.1,4.88,4.88,0,0,0,1,.09l1.17,0a19.51,19.51,0,0,1,2.39.23l0,.81a13.91,13.91,0,0,1-2.4.36c-.4,0-.81,0-1.22,0a4.4,4.4,0,0,1-1.4-.18,4.61,4.61,0,0,0-1-.16l-1.17-.12A13.89,13.89,0,0,1,100.27,285.59Z" transform="translate(-17.9 -81.4)"/><path class="cls-2" d="M263.86,309.05a11.34,11.34,0,0,1,2.39-.61,12,12,0,0,1,1.22-.13,3.89,3.89,0,0,1,1.4.1,4.69,4.69,0,0,0,1,.09l1.18,0a19.51,19.51,0,0,1,2.39.23l0,.81a14.21,14.21,0,0,1-2.4.36c-.41,0-.81.05-1.23,0a4,4,0,0,1-1.39-.17,4.85,4.85,0,0,0-1-.16l-1.18-.12A14,14,0,0,1,263.86,309.05Z" transform="translate(-17.9 -81.4)"/><path class="cls-3" d="M232.21,266.7a73.51,73.51,0,0,0,.1-8.13s0-.05,0-.08c0,.19-.08.34-.11.45,0,.47-.14,1.78-.15,2a51.17,51.17,0,0,0,.12,5.4c0,.14,0,.28,0,.42C232.2,266.76,232.21,266.73,232.21,266.7Z" transform="translate(-17.9 -81.4)"/><path class="cls-3" d="M379.68,196.89a34.24,34.24,0,0,1-5.74,1.92q-.93.36-1.86.69a.6.6,0,0,1-.48,0l-.5.3a.65.65,0,0,1-.79-1,6.93,6.93,0,0,0,.5-.58.83.83,0,0,1-.57-.77v-.46a.85.85,0,0,1,.16-.5c.77-3.9,2.87-7.37,4-11.18a.87.87,0,0,1,1.67.46c-.94,3.28-2.63,6.31-3.57,9.57a62.28,62.28,0,0,0,5.06-11.71c-4.44-.42-8.88-.8-13.32-1.23-8.5-.82-17-2-25.46-2.95-3.8-.43-7.6-.81-11.4-1.19a.79.79,0,0,1-.56.21,166.46,166.46,0,0,1-20.47-.7c-6.81-.83-13.54-2.15-20.34-3a1,1,0,0,1-.25-.07c-.5,1.3-1,2.59-1.57,3.87a16.62,16.62,0,0,1-.43,3,55.36,55.36,0,0,1-2.27,6.24c-1.57,4.1-2.9,7.89-5.78,11.31-.82,1-2.22-.43-1.4-1.4a20.48,20.48,0,0,0,2.42-3.63c-.25.34-.5.68-.78,1a1.65,1.65,0,0,1-1,.61,19,19,0,0,1-3.6,3.73c-.63.51-1.86.66-2.27-.29a24.71,24.71,0,0,0-1.46-2.73,3.72,3.72,0,0,1-2.85-2.45c-1.32-3.59-4.76-6.15-7.35-8.78a45.72,45.72,0,0,1-6.56-8.14c-3.31.51-6.63,1-9.9,1.77-5.38,1.23-10,4-15.31,5.4l-.46.11a76.77,76.77,0,0,1-9.64,3.42,47.31,47.31,0,0,1-13.81,1.51,1.07,1.07,0,0,1-1-1.41l-3.13.23c2,.95,3.69,3.2,5.12,4.44a1.28,1.28,0,0,1,.47.81c.74.67,1.36,1.48,2.06,2.22a.87.87,0,0,1-.84,1.44c-1.36-.29-2.71-.6-4.07-.87-.06.26-.12.52-.17.78a8.31,8.31,0,0,1,.77,1.07,3.68,3.68,0,0,1,1.43,1.1,91.92,91.92,0,0,0,8.21,9c2.49,2.39,5.89,4.43,7.62,7.47a11.35,11.35,0,0,1,.93,2.18v-1a1,1,0,0,1,2.08,0c0,4.53.08,9.06.17,13.59,5.81.86,11.56,1.6,16.92,4.24a22.12,22.12,0,0,1,2.75,1.63c7.42,4.1,11.1,12.68,12.16,21.33.74,6,.2,11.95-.19,17.92,0,1,.06,2,.1,3a20.15,20.15,0,0,0,5.17-3.2,37.09,37.09,0,0,0,2.45-4.13,2.23,2.23,0,0,1,.53-1c0-.07.07-.13.1-.19a9.07,9.07,0,0,1-1.49-6.89,1.41,1.41,0,0,1,.06-1.08c1-2.25,2.51-4.27,3.14-6.68a1.41,1.41,0,0,1,2.45-.49,3.85,3.85,0,0,1,1.64,2.57,15.25,15.25,0,0,1,1.16-2.17c1.52-2.21,3.86-3.43,6.41-2.57a5.67,5.67,0,0,1,4.75,5.33,6.76,6.76,0,0,1-.16,3.27,8.38,8.38,0,0,1-.37,1c-1.65,4.73-5.76,7.59-10.18,9.48a6.28,6.28,0,0,1-1.38,1.53c-.64,1.48-1.42,2.9-2.14,4.37a2.33,2.33,0,0,1-1.38,1.26c-2.28,3.65-5.14,6.81-9.27,7.83a2.4,2.4,0,0,1-1.35.55A63,63,0,0,1,252.14,299c6,1.12,12,2.39,18,3.9,8.56,2.16,17.09,4.15,25.76,5.8,7.78,1.47,15.49,3.42,23.33,4.58,2.43-1.7,5.41-2.67,8.07-3.91,4-1.85,7.78-3.87,11.66-5.92s8.2-3.79,12.28-5.72,8-4.2,12.06-6.08c.24-23.13,1.72-46.21,1.77-69.34a2,2,0,0,1-.48-1.35c0-2.53-.23-5.09,1.14-7.33a12,12,0,0,1,3.44-3.43,1,1,0,0,1,.18-.4c3.73-4.72,9.11-7.63,13.27-11.9.78-.8,2,.42,1.22,1.22-.25.26-.5.51-.76.76a13.68,13.68,0,0,0,3-3.9A30.41,30.41,0,0,1,379.68,196.89ZM234,203a149.3,149.3,0,0,1-30.43-3.78c-1.31-.28-.76-2.28.55-2A146.8,146.8,0,0,0,234,200.89,1,1,0,0,1,234,203Zm83.34,75.45c-.07-7.2-.35-14.45-.83-21.63-.49-7.5-1.09-15-.84-22.51,0-1.11,1.77-1.11,1.73,0-.25,7.52.35,15,.84,22.51.48,7.18.76,14.43.83,21.63A.87.87,0,0,1,317.38,278.42Zm21.49-68.5c-1.95,1.26-3.24,3.61-5,5.16s-3.47,3.19-5.18,4.83-3.85,3.4-5.54,5.32c-1.44,1.64-2.6,3.46-4.12,5a1,1,0,0,1-1.52.81l-1-.34a.85.85,0,0,1-.71-.69,15.65,15.65,0,0,1-2.19-1.31c-1.3-1-2.43-2.31-3.66-3.41s-2.76-2.26-4.12-3.42a30.71,30.71,0,0,1-3.56-4.08,1,1,0,0,1-.23-.88l-.33-.4c-1-1.23-2.3-2.27-3.36-3.49-3.52-.84-7-2-10.51-2.83s-6.89-1.45-10.29-2.31a21.54,21.54,0,0,0-4.12-.65,2.91,2.91,0,0,1-2.2-.77c-1.11-1.26-.6-3.6-.56-5.12a1,1,0,0,1,1.13-1,1.06,1.06,0,0,1,1.27-1.31l.52.13a.92.92,0,0,1,.56,0l.69.26A86.68,86.68,0,0,0,288.13,201c4.79.29,9.56.77,14.33,1.24,5,.5,10.07,1.05,15.08,1.68,4.35.55,9,.78,13.15,2.45a1.11,1.11,0,0,1,.47.37,41.39,41.39,0,0,1,4.44.54,4.74,4.74,0,0,1,1.76.68l.53,0,.19,0A1.06,1.06,0,0,1,338.87,209.92Z" transform="translate(-17.9 -81.4)"/><path class="cls-4" d="M338.25,207.9h-1.09a1.58,1.58,0,0,0-.54-.19,2.21,2.21,0,0,0-1.82-1.06c-3.82-.22-7.63-.44-11.42-.87a2.19,2.19,0,0,0-1.33-.41l-2.19-.05-.42-.06c-4.91-.76-9.78-1.72-14.74-2.12a2.57,2.57,0,0,0-.69,0c-2.21-.25-4.44-.4-6.67-.54a1.18,1.18,0,0,0-.8-.39l-23-1.91a1,1,0,0,0-.42.07,1.16,1.16,0,0,0-2.21.43A14.49,14.49,0,0,0,271,204c-.31.49-.6,1.12.11,1.39.38.15.77.26,1.16.38a3.12,3.12,0,0,0,.66.18l.06,0a52.68,52.68,0,0,0,9.21,2.57c5.31,1.12,10.54,3,15.9,3.92a30.77,30.77,0,0,0,5,4.29c2.74,1.94,4.85,4.75,7.07,7.24l3.3,3.7c.87,1,1.72,2.18,3,2.66l.42.13a1.7,1.7,0,0,0,2.18-.39,5.59,5.59,0,0,0,1.65-2.52,2.12,2.12,0,0,0,.59-.64,41.35,41.35,0,0,1,2.35-3.61c2.07-1.52,4.13-3.06,6-4.77,2.58-2.31,4.46-5.82,7.56-7.46a1.64,1.64,0,0,0,.81-.89.57.57,0,0,0,.13,0A1.15,1.15,0,0,0,338.25,207.9Z" transform="translate(-17.9 -81.4)"/><path class="cls-5" d="M363.33,292.39c3.86-20.56,2.79-41.68,2.77-62.51a2.29,2.29,0,0,1,1.38-2.19q-.11-4.86-.23-9.72a4,4,0,0,0-5.93-3.4,204.58,204.58,0,0,1-34.59,14.55,25.61,25.61,0,0,1-3.72.09,3.38,3.38,0,0,0-3.37,1.91,2.43,2.43,0,0,1,.18,1.08c-.32,7.79.38,15.55.74,23.33a226.66,226.66,0,0,1-.31,23.46c-.45,7.85-1.27,15.67-1.89,23.51-.25,3.19-.45,6.39-.7,9.58,1.2,2.14,4.56,3.21,6.28,1,2-2.53,4.68-3.94,7.59-5.23,3.59-1.6,7.23-3.1,10.85-4.65l11.29-4.82c2.09-.89,4.41-1.68,6.62-2.6C361.32,294.67,362.31,293.52,363.33,292.39Z" transform="translate(-17.9 -81.4)"/><path class="cls-6" d="M316.61,231a115.55,115.55,0,0,1-9.73-9c-3.1-3.16-6.09-6.4-9.08-9.64h0l.22.13q-12.37-3.06-24.87-5.6c-2.08-.44-4.17-.82-6.26-1.17l-6.27-1.1c-4.16-.82-8.38-1.21-12.6-1.63-8.45-.77-17-1.15-25.45-2a114.39,114.39,0,0,1-25.17-5l.61-1.75a113.08,113.08,0,0,0,24.73,5.17c8.42.94,16.92,1.39,25.41,2.25,4.23.46,8.5.89,12.67,1.76l6.29,1.16c2.1.38,4.19.77,6.27,1.24q12.5,2.66,24.86,5.84l.13,0,.09.1h0c3,3.23,6,6.47,9.08,9.61a116.58,116.58,0,0,0,9.66,8.95Z" transform="translate(-17.9 -81.4)"/><path class="cls-6" d="M319.63,229.05a32.17,32.17,0,0,1,4.37-6c1.65-1.87,3.47-3.54,5.26-5.22s3.65-3.27,5.5-4.88,3.72-3.18,5.65-4.7l.62.69c-1.69,1.77-3.46,3.48-5.22,5.17s-3.59,3.34-5.39,5-3.6,3.29-5.3,5a46.23,46.23,0,0,0-4.7,5.48Z" transform="translate(-17.9 -81.4)"/><path class="cls-6" d="M345,206.44q11.5-3,22.94-6.3,5.7-1.65,11.4-3.38L385,195a24.19,24.19,0,0,0,5.46-2.26l.08.14a24.41,24.41,0,0,1-5.41,2.51l-5.61,2q-5.62,2-11.27,3.84Q357,205,345.57,208.44Z" transform="translate(-17.9 -81.4)"/><path class="cls-6" d="M323.34,227.7a41.31,41.31,0,0,0,11-2.64c3.58-1.32,7.07-3,10.63-4.53s7.21-2.89,10.85-4.23,7.34-2.53,11.08-3.53h0a24.14,24.14,0,0,1,4.92-4.43c1.78-1.3,3.52-2.62,5.23-4a118.21,118.21,0,0,0,9.73-8.84l1.25,1.32a117.53,117.53,0,0,1-10.43,8.24c-1.81,1.28-3.66,2.49-5.53,3.67a23.6,23.6,0,0,0-5.17,4.05h0c-3.67,1.23-7.25,2.72-10.82,4.21S349,220,345.49,221.69s-6.91,3.49-10.54,5a31,31,0,0,1-11.55,2.57Z" transform="translate(-17.9 -81.4)"/><path class="cls-6" d="M319.82,232.7q.75,40.5-1.16,81l-.93,0q1.08-40.42-.5-80.84Z" transform="translate(-17.9 -81.4)"/><path class="cls-6" d="M367,215.12a752.82,752.82,0,0,1-1.54,77l-2.44-.19a754.47,754.47,0,0,0,3.06-76.82Z" transform="translate(-17.9 -81.4)"/><path class="cls-6" d="M319.13,314.37c3.36-2,6.78-3.89,10.23-5.72s6.94-3.55,10.42-5.29,7-3.48,10.49-5.16,7-3.36,10.58-5l.79,1.59q-5.19,2.7-10.44,5.27c-3.49,1.74-7,3.43-10.53,5.1s-7,3.37-10.6,5-7.14,3.13-10.79,4.53Z" transform="translate(-17.9 -81.4)"/><path class="cls-6" d="M253.23,300.12c5.51.31,10.84,1.76,16.11,3.19s10.47,3.12,15.75,4.46a70.56,70.56,0,0,0,8,1.57c2.7.37,5.36.9,8,1.43,1.34.24,2.66.53,4,.72l4,.53a30.64,30.64,0,0,1,8.1,1.83l-.29.88a44.88,44.88,0,0,0-8-1c-1.35-.08-2.73-.15-4.11-.31s-2.75-.4-4.09-.64-2.7-.51-4-.8-2.65-.68-4-1.09l-3.93-1.18c-1.32-.38-2.64-.73-4-1-5.3-1.29-10.64-2.41-16-3.49s-10.67-2-15.91-3.53Z" transform="translate(-17.9 -81.4)"/><path class="cls-6" d="M199.69,195.89a31.43,31.43,0,0,1,4.81,4.32c1.5,1.54,2.94,3.15,4.4,4.74s2.92,3.19,4.47,4.7a31,31,0,0,0,2.37,2.21l2.56,2,.22.18,0,.47a31.13,31.13,0,0,1,.12,3.48c0,1.16,0,2.32,0,3.47l-.09,3.47c0,1.16-.09,2.32-.17,3.49l-.92.05c-.21-1.16-.36-2.32-.49-3.48s-.2-2.33-.26-3.5-.09-2.33-.1-3.49a29,29,0,0,1,.11-3.49l.27.64c-.69-.83-1.34-1.7-2-2.52a29.12,29.12,0,0,0-2.27-2.31c-1.56-1.48-3.23-2.87-4.88-4.26s-3.32-2.78-4.9-4.26a26,26,0,0,1-4.35-4.83Z" transform="translate(-17.9 -81.4)"/><path class="cls-6" d="M256.18,201.43c2.15-.65,4.29-1.41,6.46-2.14a38,38,0,0,1,6.66-1.75h0a175.54,175.54,0,0,1-21.54-23.63h0l.53.16c-8.26,3.12-16.56,6.21-25.08,8.7A122.24,122.24,0,0,1,197,187.7h0l.74-2.1a41.69,41.69,0,0,1,6.82,9.15l-.78.5a39.78,39.78,0,0,0-7.64-7.85l-2.47-1.92,3.21-.18h0a119.66,119.66,0,0,0,25.89-4.14c8.51-2.22,16.87-5.08,25.22-8l.33-.12.2.28h0a174,174,0,0,0,20.79,24.18h0c-2.13.87-4.22,1.75-6.35,2.59a47,47,0,0,1-6.54,2.2Z" transform="translate(-17.9 -81.4)"/><path class="cls-6" d="M339.82,208.51c-11.12-2.51-22.5-3.61-33.87-4.59s-22.82-1.84-34.14-3.91h0l-1.84-.32,1.19-1.44a73.45,73.45,0,0,0,8.21-12.57,118.83,118.83,0,0,0,6.14-13.84h0l.13-.34.36.06c15.39,2.72,31,4.3,46.54,5.72l46.77,4.29h0l2,.18-1,1.68c-2.61,4.63-4.73,9.74-7.84,14.28l-.78-.48c2.56-4.72,4.1-9.89,6.3-14.95l1,1.87h0L332.36,179c-15.56-1.72-31.14-3.58-46.53-6.59l.48-.29h0a119.79,119.79,0,0,1-5.59,14.24,74.89,74.89,0,0,1-7.85,13.25l-.65-1.76h0c11.14,2.26,22.51,3.33,33.88,4.52s22.79,2.5,33.94,5.24Z" transform="translate(-17.9 -81.4)"/><path class="cls-6" d="M218.18,213.64l24.64,3.7c8.21,1.25,16.43,2.46,24.63,3.8q24.62,4,49.06,8.93l-.51,2.42q-24.28-5.46-48.78-10c-8.16-1.52-16.35-2.9-24.53-4.34l-24.56-4.23Z" transform="translate(-17.9 -81.4)"/><path class="cls-6" d="M270.94,200.06a22.86,22.86,0,0,0,.27,4.76l-.92.09a23.22,23.22,0,0,1,.42-4.87Z" transform="translate(-17.9 -81.4)"/><path class="cls-7" d="M116.47,261.47c1.63,7,12.49,10.73,12.49,10.73s9,12.44,12.49,13.26,19.28-.34,19.28-.34l.69-6.59S149,281,144.05,280.13s-10.31-10.22-10.31-10.22,3.16-5.7.84-7.62-3.18-7.77-4.34-6.44.22,6.16.22,6.16-2.88-1.31-6.19-7.35c-6.55-.72-7.89,5.44-7.8,6.81" transform="translate(-17.9 -81.4)"/><path class="cls-8" d="M117.5,261.39a9.44,9.44,0,0,0,1.83,3.63,16.39,16.39,0,0,0,3,2.87,26.28,26.28,0,0,0,3.56,2.24,29.25,29.25,0,0,0,3.84,1.72l.11,0,.06.1c1.84,2.53,3.76,5,5.78,7.4,1,1.19,2.06,2.35,3.17,3.44a19.48,19.48,0,0,0,1.75,1.54,4,4,0,0,0,2,.94,34.22,34.22,0,0,0,4.66.25c1.57,0,3.14,0,4.7-.08,3.14-.09,6.28-.25,9.41-.44l-.08.08h0l.26-6.64.62.56h0c-2.68.46-5.35.84-8,1.14a49,49,0,0,1-8.13.34,9.15,9.15,0,0,1-2-.34,8.19,8.19,0,0,1-1.84-.94,16.79,16.79,0,0,1-3-2.73,39.1,39.1,0,0,1-4.69-6.6h0a14.76,14.76,0,0,0,1.44-5.39,3,3,0,0,0-.24-1.28,1.77,1.77,0,0,0-.33-.52c-.07-.08-.15-.14-.23-.22a3.32,3.32,0,0,1-.28-.26,9.2,9.2,0,0,1-1.59-2.45c-.41-.87-.76-1.76-1.14-2.61a4.8,4.8,0,0,0-.64-1.15.32.32,0,0,0-.14-.1s-.05,0-.11.06a1.24,1.24,0,0,0-.3.49,7.26,7.26,0,0,0-.09,2.72,23.61,23.61,0,0,0,.49,2.77l.06.28-.24-.13h0a9,9,0,0,1-2-1.46,18.93,18.93,0,0,1-1.67-1.8c-.52-.63-1-1.3-1.46-2s-.88-1.37-1.29-2.08l.23.15h0a7.23,7.23,0,0,0-2.82.1,5.57,5.57,0,0,0-2.49,1.32,7.07,7.07,0,0,0-1.62,2.33,4.48,4.48,0,0,0-.43,2.73l-.79.06a13.18,13.18,0,0,1,.87-2.95,7.12,7.12,0,0,1,1.72-2.45,6.1,6.1,0,0,1,2.62-1.47,8.73,8.73,0,0,1,3-.27h0l.16,0,.07.14c.38.71.77,1.41,1.19,2.09s.88,1.35,1.37,2a17,17,0,0,0,1.56,1.82,8.71,8.71,0,0,0,1.86,1.48h0L131,262a18.86,18.86,0,0,1-.66-2.79,7.07,7.07,0,0,1,0-2.93,1.7,1.7,0,0,1,.41-.72.66.66,0,0,1,.52-.2.81.81,0,0,1,.47.25,4.78,4.78,0,0,1,.78,1.29c.39.88.73,1.76,1.14,2.6a8.56,8.56,0,0,0,1.48,2.3l.24.22a2.57,2.57,0,0,1,.28.29,2.37,2.37,0,0,1,.41.68,3.72,3.72,0,0,1,.24,1.5,8.66,8.66,0,0,1-.65,2.82,14.28,14.28,0,0,1-1.29,2.56h0a39.17,39.17,0,0,0,4.87,6.42,16.24,16.24,0,0,0,3,2.58,7.61,7.61,0,0,0,1.78.84A8.25,8.25,0,0,0,146,280a47.89,47.89,0,0,0,8-.6c2.66-.38,5.31-.85,7.94-1.39h0l.73-.09-.11.66-1.12,6.54h0v.07h-.08c-3.13.24-6.26.44-9.4.58-1.57.07-3.14.13-4.72.15a34.35,34.35,0,0,1-4.74-.19,3.2,3.2,0,0,1-1.19-.35,8.49,8.49,0,0,1-1-.65,17.83,17.83,0,0,1-1.81-1.55c-1.15-1.09-2.22-2.25-3.26-3.43-2.07-2.38-4-4.84-5.92-7.37l.18.14a32.57,32.57,0,0,1-4-1.77,26.4,26.4,0,0,1-3.66-2.3,16.81,16.81,0,0,1-3.14-3,10,10,0,0,1-2-3.92Z" transform="translate(-17.9 -81.4)"/><path class="cls-7" d="M172.38,319s-13.27,10.87-14.58,10.53a26.43,26.43,0,0,1-4.62-2.58l6.49-11.16,6.54-2.14Z" transform="translate(-17.9 -81.4)"/><path class="cls-8" d="M172.38,319c-2.93,2.57-5.88,5.12-8.93,7.57-.76.61-1.53,1.21-2.32,1.8a16.89,16.89,0,0,1-2.56,1.67,2.62,2.62,0,0,1-.48.17,1.55,1.55,0,0,1-.48,0l-.22-.06c-.29-.09-.53-.19-.77-.29-.48-.21-.92-.44-1.37-.67-.88-.47-1.73-1-2.58-1.49h0l-.71-.47.43-.74,6.49-11.15h0l.26-.36.25,0,6.82-1.28h0Zm0,0-6.17-5.35h0l-6.26,3,.51-.41h0L154,327.45l-.28-1.22h0c.77.56,1.56,1.11,2.36,1.62.4.25.81.5,1.21.71.2.1.4.2.58.27l.13.05s-.12,0-.12,0l.2-.06a17.65,17.65,0,0,0,2.44-1.35c.81-.51,1.62-1.05,2.42-1.6C166.12,323.68,169.26,321.38,172.38,319Z" transform="translate(-17.9 -81.4)"/><path class="cls-7" d="M214.36,318.07S198.76,333.29,196.9,333s-6.84-2.66-6.84-2.66l6.37-14.63,8.35-3.46Z" transform="translate(-17.9 -81.4)"/><path class="cls-8" d="M214.36,318.07c-3.65,3.53-7.33,7-11.15,10.37-1,.83-1.92,1.65-2.91,2.45a14.42,14.42,0,0,1-3.15,2.1.84.84,0,0,1-.47,0,3.43,3.43,0,0,1-.46-.11c-.31-.08-.61-.18-.91-.28-.6-.21-1.19-.44-1.78-.68-1.17-.49-2.33-1-3.47-1.55h0l5.54-15h0l.19-.39.29-.09,8.69-2.63h0Zm0,0-9.59-5.78h0l-8,4.28.49-.48h0l-7.21,14.27h0c1.14.54,2.3,1.06,3.47,1.55.59.24,1.18.47,1.78.68.3.1.6.2.91.28a3.43,3.43,0,0,0,.46.11.84.84,0,0,0,.47,0,14.42,14.42,0,0,0,3.15-2.1c1-.8,2-1.62,2.91-2.45C207,325.09,210.71,321.6,214.36,318.07Z" transform="translate(-17.9 -81.4)"/><path class="cls-9" d="M153.44,243.27a4.87,4.87,0,0,1,2.44,2.7,6.5,6.5,0,0,1,.34,3.17c-.24,2-1.05,3.67-1.4,5.51-.12-1.87.25-3.79,0-5.51a4.83,4.83,0,0,0-.81-2.21,2.34,2.34,0,0,0-1.53-1Z" transform="translate(-17.9 -81.4)"/><path class="cls-10" d="M226.15,306.72c.93-5.89,1.57-11.82,2-17.76.89-12.22.89-24.48.73-36.73a4.18,4.18,0,0,1,.26-1.54c-.82-3.7-.78-7.85-3.25-11a17.2,17.2,0,0,0-5.38-3l-1.75-.26c-2.43-.06-4.85-.68-7.26-1-3.62-.39-7.29-.33-10.92-.49-4-.18-8.06-.42-12.09-.54l-1.77,0c-.67.05-1.38.1-2.1.1-10.46,1.43-21.08,2.16-31.08,5.5-.93,3.37-2.39,6.6-2.82,10.09a1.84,1.84,0,0,1-.2.65c-1.17,6.81-2.45,13.62-3.65,20.43a148.28,148.28,0,0,0-1.73,18c-.1,5.44.09,11.35,2.4,16.45a13.82,13.82,0,0,0,4.1,5.55,22.42,22.42,0,0,0,6.81,3.26,85.92,85.92,0,0,0,9.17,2c3.43.68,6.87,1.31,10.34,1.82a2.91,2.91,0,0,1,.63.15,218.78,218.78,0,0,0,23.21,2c3,.11,6.06.07,9.1.18a49.15,49.15,0,0,0,7.48,0l2.71-.34c.46-.26.91-.53,1.34-.82.71-1.61,1.75-2.95,2.39-4.63C225.75,312.34,225.74,309.32,226.15,306.72Z" transform="translate(-17.9 -81.4)"/><path class="cls-11" d="M248.37,304.57a.64.64,0,0,0,0-.07l.38-2.79s0-.09,0-.13a1.93,1.93,0,0,1,0-.24,2.78,2.78,0,0,0,0-.58,263,263,0,0,0,1-28.07c0-2.38,0-4.81-.3-7.18,0-.23-.06-.46-.1-.69,0-5.26-.07-10.64-1.45-15.66-1.47-5.33-5-9.77-9.89-11.36a14.06,14.06,0,0,0-1.9-.73,38,38,0,0,0-4.31-1.27c-1.19-.43-2.4-.81-3.62-1.13a5,5,0,0,0-1.2-.55l-.41-.23c-.2-.1-.33.23-.13.32l.15.09a.25.25,0,0,0,0,.07,4.68,4.68,0,0,0,.6.5.29.29,0,0,0,0,.39l.32.37s0,.05.06.07c2.27,2.76,2.67,6,3.13,9.52l0,.27a42.27,42.27,0,0,1,.81,7.08c-.06,3.05-.18,6.09-.16,9.14,0,5.8.17,11.61-.1,17.41s-.83,11.56-1.48,17.32-1.1,11.43-2.72,16.89a19.59,19.59,0,0,1-3.68,6.83c7.19-1.05,14.47-1.82,21.22-4.77a29.82,29.82,0,0,0,1.77-2.41,30.64,30.64,0,0,0,1.35-4.81c.19-.85.42-1.72.61-2.59Z" transform="translate(-17.9 -81.4)"/><path class="cls-12" d="M145.43,302a12,12,0,0,0,2.52,6.83,17.38,17.38,0,0,0,5.65,4.78c4.43,2.38,9.54,3.05,14.54,3.62l15.1,1.69,7.55.74,3.78.37,1.89.18,1.89.08,7.59.31c2.52.08,5.06.28,7.57.21a14.14,14.14,0,0,0,7.09-1.7,9.07,9.07,0,0,0,3.79-5.95A217.68,217.68,0,0,0,228,283.09a248.7,248.7,0,0,0-.23-30.28c-.18-2.52-.38-5-.63-7.55s-.45-5-1.47-7.06a8,8,0,0,0-5.2-4,32.37,32.37,0,0,0-7.28-1,248.39,248.39,0,0,0-30.24-.55,96,96,0,0,0-29.41,5.87h0l.3-.34q-2.42,7.49-4.33,15.14c-1.24,5.1-2.37,10.23-3.2,15.41s-1.5,10.4-1.86,15.63c-.17,2.61-.31,5.23-.3,7.85,0,1.31,0,2.62.07,3.93l.07,2a1.22,1.22,0,0,0,.09.41h-.06a.34.34,0,0,0-.19,0c-.13.09-.12.14-.12.14s0,0,0,.07a.4.4,0,0,0,.52.22.09.09,0,0,0,.07,0l-.6-.88.18-.1a.68.68,0,0,1,.35,0,.64.64,0,0,1,.46.39.93.93,0,0,1,0,.56.83.83,0,0,1-.37.54.65.65,0,0,1-.44.1.78.78,0,0,1-.28-.08,1.1,1.1,0,0,1-.57-.68,2.14,2.14,0,0,1-.11-.62l0-2c0-1.32,0-2.64,0-4q.07-4,.39-7.9c.41-5.26,1.1-10.48,2-15.67s1.94-10.35,3.18-15.47,2.54-10.22,4-15.29l.07-.23.23-.11h0c9.28-4.36,19.54-6.3,29.7-7s20.39-.06,30.5.62a33.72,33.72,0,0,1,7.73,1.12,11.79,11.79,0,0,1,3.69,1.83,8.91,8.91,0,0,1,2.68,3.26c1.2,2.56,1.33,5.24,1.56,7.74s.39,5.07.54,7.61a245.85,245.85,0,0,1-.15,30.47,223.53,223.53,0,0,1-4,30.21,13.25,13.25,0,0,1-1.47,3.63,8.21,8.21,0,0,1-2.8,2.82,14.88,14.88,0,0,1-7.52,1.73c-2.57,0-5.09-.15-7.62-.24l-7.6-.33-1.9-.08-1.9-.19-3.78-.38-7.57-.76-15.1-1.73c-5-.58-10.18-1.29-14.76-3.7a18.09,18.09,0,0,1-5.88-4.95,12.61,12.61,0,0,1-2.68-7.2Z" transform="translate(-17.9 -81.4)"/><path class="cls-12" d="M251.67,288.92c-.27,1.95-.45,4-.67,6l-.65,6c-.24,2-.49,4-.8,6-.15,1-.32,2-.53,3a16.42,16.42,0,0,1-.85,3.05l0-.16a4.89,4.89,0,0,1-1,2.11,7.54,7.54,0,0,1-1.61,1.53c-1.28.91-2.77,1-3.91,1.55h0a63,63,0,0,1-18,3.3,62.13,62.13,0,0,0,17.7-4.14l0,0c.67-.33,1.34-.52,2-.76a5.67,5.67,0,0,0,1.68-.86,6.44,6.44,0,0,0,1.3-1.36,3.68,3.68,0,0,0,.69-1.59v-.07l0-.1a15.6,15.6,0,0,0,.71-2.79q.26-1.47.45-3c.26-2,.46-4,.65-6l.52-6c.17-2,.3-4,.54-6.08Z" transform="translate(-17.9 -81.4)"/><path class="cls-12" d="M225.77,233.2c4.83,1.31,9.86,1.73,14.61,3.69a16.61,16.61,0,0,1,6.28,4.42,12.5,12.5,0,0,1,2.06,3.33,23.18,23.18,0,0,1,1.26,3.65,66.17,66.17,0,0,1,1.65,15c0,2.52.06,5,.08,7.52s0,5,.3,7.41l-1.55.18c-.51-5.09-.33-10.09-.42-15.08a68.86,68.86,0,0,0-1.4-14.74,16.86,16.86,0,0,0-2.91-6.54,15.63,15.63,0,0,0-5.73-4.36C235.54,235.64,230.48,234.89,225.77,233.2Z" transform="translate(-17.9 -81.4)"/><path d="M215.23,250.93c-3.36-1.7-10.7-3.76-16.66,6.14a.72.72,0,0,0,1.06.94,41.76,41.76,0,0,1,15.23-5.68A.76.76,0,0,0,215.23,250.93Z" transform="translate(-17.9 -81.4)"/><path d="M175.84,252.32c-1.18-3.53-4.88-10-15.91-7.26a.71.71,0,0,0,.09,1.4A40.89,40.89,0,0,1,174.6,253C175.22,253.48,176.06,253,175.84,252.32Z" transform="translate(-17.9 -81.4)"/><path class="cls-13" d="M198.13,285.6l7,1.37c3.82.74,7.41-2.21,8-6.57l1-8c.57-4.35-2.09-8.52-5.91-9.27l-7-1.37c-3.82-.74-7.41,2.21-8,6.57l-1,8C191.65,280.69,194.31,284.86,198.13,285.6Z" transform="translate(-17.9 -81.4)"/><ellipse class="cls-14" cx="201.94" cy="269.97" rx="5.53" ry="5.84" transform="translate(-124.87 323.62) rotate(-76.82)"/><circle class="cls-15" cx="181.64" cy="183.85" r="2.15"/><circle class="cls-16" cx="187.33" cy="192.92" r="0.8"/><path class="cls-13" d="M162.39,279.3l6,1.34c3.25.73,6.34-2,6.86-6.1l1-7.5c.52-4.07-1.71-8-5-8.73l-6-1.34c-3.25-.73-6.34,2-6.86,6.1l-1,7.5C156.9,274.65,159.14,278.58,162.39,279.3Z" transform="translate(-17.9 -81.4)"/><ellipse class="cls-14" cx="166.38" cy="264.67" rx="5.58" ry="5.24" transform="translate(-147.15 284.91) rotate(-76.82)"/><ellipse class="cls-15" cx="164.03" cy="260.07" rx="2.04" ry="1.83" transform="translate(-118.72 334.86) rotate(-88.29)"/><ellipse class="cls-16" cx="166.84" cy="269.98" rx="0.76" ry="0.68" transform="translate(-125.9 347.27) rotate(-88.29)"/><ellipse cx="182.46" cy="298.41" rx="4.37" ry="5.74" transform="translate(-19.36 -80.51) rotate(-0.28)"/><path class="cls-10" d="M179.18,299.25a10.31,10.31,0,0,0,4.38,0c2.18-.56,2.19.53,2.19.53s-1.08,3.29-2.72,3.3S180.3,303.07,179.18,299.25Z" transform="translate(-17.9 -81.4)"/><path class="cls-7" d="M164,317.38c.38,7.26-2.24,13.69-5.82,14.13s-6.53-5.17-6.7-12.3c-.17-6.91,2.37-12.8,5.71-13.36S163.62,310.36,164,317.38Z" transform="translate(-17.9 -81.4)"/><path class="cls-7" d="M200.33,319.07c.38,7.26-2.24,13.68-5.83,14.12S188,328,187.8,320.9c-.17-6.91,2.38-12.81,5.72-13.36S200,312,200.33,319.07Z" transform="translate(-17.9 -81.4)"/><path class="cls-8" d="M164.05,317.38a25.66,25.66,0,0,1-.63,7.94,15.71,15.71,0,0,1-1.52,3.81,6.88,6.88,0,0,1-3.19,3,4.28,4.28,0,0,1-4.48-.86,9.45,9.45,0,0,1-2.41-3.45,21.05,21.05,0,0,1-1.57-7.81,24.77,24.77,0,0,1,1-7.8,15.34,15.34,0,0,1,1.55-3.64,6.39,6.39,0,0,1,2.9-2.75,3.62,3.62,0,0,1,2.06-.19,4.68,4.68,0,0,1,1.84.91,9.51,9.51,0,0,1,2.43,3.18,18.34,18.34,0,0,1,1.4,3.72A27.26,27.26,0,0,1,164.05,317.38Zm-1.44.07a21.48,21.48,0,0,0-1.37-7.36,8.15,8.15,0,0,0-2-3.07,3.59,3.59,0,0,0-1.56-.83,2.86,2.86,0,0,0-1.73.17,5.82,5.82,0,0,0-2.54,2.56,14.85,14.85,0,0,0-1.39,3.51,23.54,23.54,0,0,0-.54,7.53,20.59,20.59,0,0,0,1.82,7.2,8,8,0,0,0,2.06,2.79,2.54,2.54,0,0,0,2.71.5,5.19,5.19,0,0,0,2.28-2.27,13.9,13.9,0,0,0,1.41-3.33A23.85,23.85,0,0,0,162.61,317.45Z" transform="translate(-17.9 -81.4)"/><path class="cls-8" d="M202.35,319a25.58,25.58,0,0,1-.67,7.93,15.1,15.1,0,0,1-1.52,3.8,6.9,6.9,0,0,1-3.15,3,4.15,4.15,0,0,1-4.46-.86,9.79,9.79,0,0,1-2.37-3.46,21.5,21.5,0,0,1-1.59-7.78,25.87,25.87,0,0,1,.16-3.94,22.1,22.1,0,0,1,.77-3.87,15.38,15.38,0,0,1,1.56-3.64,6.41,6.41,0,0,1,2.92-2.74,3.71,3.71,0,0,1,2.06-.19,4.72,4.72,0,0,1,1.83.92,9.38,9.38,0,0,1,2.43,3.17A20.79,20.79,0,0,1,202.35,319Zm-1.41.08a21.18,21.18,0,0,0-1.39-7.36,8.28,8.28,0,0,0-2-3.08,3.66,3.66,0,0,0-1.58-.83,2.82,2.82,0,0,0-1.72.18,5.82,5.82,0,0,0-2.53,2.57,14.47,14.47,0,0,0-1.37,3.5,23.27,23.27,0,0,0-.61,7.53,20.35,20.35,0,0,0,1.79,7.23,7.81,7.81,0,0,0,2.12,2.77,2.65,2.65,0,0,0,2.72.51,5.14,5.14,0,0,0,2.32-2.26,13.79,13.79,0,0,0,1.4-3.35A23.94,23.94,0,0,0,200.94,319.05Z" transform="translate(-17.9 -81.4)"/><path class="cls-7" d="M279.77,258.88c-.91,7.14-11.33,11.93-11.33,11.93s-7.8,12.7-11.14,13.87-19.22,1.61-19.22,1.61l-1.36-6.49s12.62,1.17,17.45-.16S263.45,269,263.45,269s-3.72-5.35-1.61-7.49,2.39-8.06,3.67-6.85.41,6.15.41,6.15,2.73-1.59,5.41-7.94c6.44-1.38,8.4,4.61,8.44,6" transform="translate(-17.9 -81.4)"/><path class="cls-8" d="M279.33,259a10.92,10.92,0,0,1-1.52,4.06,17.32,17.32,0,0,1-2.78,3.31,26.25,26.25,0,0,1-3.37,2.68,30.74,30.74,0,0,1-3.72,2.19l.16-.14h0q-2.49,4-5.27,7.71c-.94,1.24-1.91,2.46-3,3.62a18.8,18.8,0,0,1-1.69,1.65,4.77,4.77,0,0,1-2.14,1.1,37,37,0,0,1-4.65.61c-1.55.14-3.1.24-4.65.33q-4.65.26-9.3.36h-.08l0-.07h0l-1.77-6.4-.18-.64h.74c2.63.27,5.28.47,7.93.58a49.67,49.67,0,0,0,7.91-.18c2.68-.16,4.77-2,6.46-4a37.15,37.15,0,0,0,4.37-6.64h0a14,14,0,0,1-1.53-2.41,8.39,8.39,0,0,1-.93-2.74,3.92,3.92,0,0,1,.08-1.52,2.14,2.14,0,0,1,.35-.71l.24-.32a2.52,2.52,0,0,0,.21-.25,8.2,8.2,0,0,0,1.24-2.43c.32-.88.57-1.79.88-2.7a4.7,4.7,0,0,1,.64-1.37.78.78,0,0,1,.43-.29.65.65,0,0,1,.55.15,1.89,1.89,0,0,1,.48.67,6.94,6.94,0,0,1,.32,2.91,19.35,19.35,0,0,1-.36,2.84h0l-.19-.14a8.87,8.87,0,0,0,1.73-1.63,18.26,18.26,0,0,0,1.41-1.95c.44-.67.82-1.38,1.2-2.09s.7-1.45,1-2.19h0l0-.06h.06a8.47,8.47,0,0,1,3-.13,6.21,6.21,0,0,1,2.76,1.13,7.17,7.17,0,0,1,2,2.25,7.53,7.53,0,0,1,1,2.85h-.46a6.77,6.77,0,0,0-.87-2.67,6.89,6.89,0,0,0-1.84-2.17,5.9,5.9,0,0,0-2.61-1.11,7.93,7.93,0,0,0-2.87.09l.09-.08h0c-.32.74-.66,1.48-1,2.2a22.26,22.26,0,0,1-1.21,2.12,17.13,17.13,0,0,1-1.43,2,8.74,8.74,0,0,1-1.8,1.68l-.22.15,0-.28h0a24.13,24.13,0,0,0,.2-2.81,7,7,0,0,0-.37-2.69,1.3,1.3,0,0,0-.34-.47c-.07-.05-.1-.05-.11,0a.27.27,0,0,0-.13.11,4.46,4.46,0,0,0-.52,1.21c-.3.89-.55,1.81-.88,2.71a9.2,9.2,0,0,1-1.33,2.61c-.08.1-.17.19-.25.28l-.2.25a2,2,0,0,0-.29.54,3.51,3.51,0,0,0-.1,1.3,14.86,14.86,0,0,0,2,5.21h0a37.88,37.88,0,0,1-4.16,6.8,16.35,16.35,0,0,1-2.84,2.86,5.43,5.43,0,0,1-.85.56l-.44.26-.48.19a4.42,4.42,0,0,1-1,.3,8.85,8.85,0,0,1-1,.2,50,50,0,0,1-8,.45c-2.67,0-5.33-.13-8-.32h0l.55-.63.94,6.58h0l-.09-.07c3.1-.12,6.2-.28,9.29-.5,1.55-.11,3.1-.23,4.64-.39a38.42,38.42,0,0,0,4.57-.68c1.47-.31,2.52-1.53,3.55-2.65s2-2.38,2.87-3.63c1.81-2.5,3.52-5.09,5.13-7.73h0l.06-.09.1-.05a30.22,30.22,0,0,0,3.67-2.07,25.93,25.93,0,0,0,3.34-2.56,16.87,16.87,0,0,0,2.75-3.16,10.14,10.14,0,0,0,1.52-3.84Z" transform="translate(-17.9 -81.4)"/><path class="cls-17" d="M291.07,198.11c13.47-3.55,27.1-7.55,38.6-15.4s20.69-20.27,21.33-34.17a24.78,24.78,0,0,0-2.36-12.37c-4.17-8.13-13.38-12.15-22-15.16-8.86-3.09-18-5.82-27.39-5.81s-19.13,3.09-25.41,10c-4,4.39-6.34,10.93-3.8,16.26a13.67,13.67,0,0,0,8.27,6.72,30.4,30.4,0,0,0,10.84,1.06,82.25,82.25,0,0,0,16.73-2.49c4.78-1.23,9.53-2.93,13.45-5.91A30.36,30.36,0,0,0,329,127.22c2.88-7.68,3.31-16.44.23-24-4.11-10.13-14.05-17.11-24.66-19.74s-21.83-1.38-32.45,1.22" transform="translate(-17.9 -81.4)"/><path class="cls-18" d="M269.57,88.11a1.22,1.22,0,0,0-.68-.5,2.23,2.23,0,0,0-1.42-.36c-.31,0-.62,0-.93,0a4.1,4.1,0,0,0-1.37.09.92.92,0,0,0-.38.21,1,1,0,0,0-.29-.18,1.55,1.55,0,0,0-.31-.06,1.32,1.32,0,0,0-1.22.25.7.7,0,0,0-.17.45s0,.07,0,.11c-.15.83,1,1.4,1.64,1.07a1.23,1.23,0,0,0,.45-.43A1,1,0,0,0,265,89a.53.53,0,0,0,.39.26,3.19,3.19,0,0,0,1.41.12,3.56,3.56,0,0,0,2.38-.55.72.72,0,0,0,.11-.15C269.54,88.54,269.7,88.38,269.57,88.11Z" transform="translate(-17.9 -81.4)"/><path class="cls-19" d="M265.52,86a.86.86,0,0,0-.79-1.22.85.85,0,0,0-.85,1,.89.89,0,0,0-.17,1.1l.2.3a1,1,0,0,0,.92.43H265A.91.91,0,0,0,265.52,86Z" transform="translate(-17.9 -81.4)"/><path class="cls-20" d="M269.05,86.22a1.25,1.25,0,0,0-.9-.57,1.17,1.17,0,0,0-1-.33,1,1,0,0,0-.27-.4,1.21,1.21,0,0,0-1.68,0,2.67,2.67,0,0,0-.65,2.26A1.2,1.2,0,0,0,266,88l.15-.07a1.08,1.08,0,0,0,.69,0l.2-.08a1.16,1.16,0,0,0,1.33.11l.25-.15A1.21,1.21,0,0,0,269.05,86.22Z" transform="translate(-17.9 -81.4)"/></svg>