<?xml version="1.0" encoding="UTF-8"?>
<!-- Generator: Adobe Illustrator 22.0.1, SVG Export Plug-In . SVG Version: 6.00 Build 0)  -->
<svg version="1.1" id="Layer_1" xmlns="http://www.w3.org/2000/svg" xmlns:xlink="http://www.w3.org/1999/xlink" x="0px" y="0px" width="408px" height="286.9px" viewBox="0 0 408 286.9" style="enable-background:new 0 0 408 286.9;" xml:space="preserve">
<g>
	<path style="fill:#F6F6F7;" d="M50,94.3C50,81.8,60,71.7,72.5,71.7S95,81.8,95,94.3"/>
	<circle style="fill:#F6F6F7;" cx="71.8" cy="58.1" r="12.8"/>
	
		<circle style="fill:none;stroke:#000000;stroke-linecap:round;stroke-linejoin:round;stroke-miterlimit:10;" cx="70.5" cy="56.2" r="12.8"/>
	<path style="fill:none;stroke:#000000;stroke-linecap:round;stroke-linejoin:round;stroke-miterlimit:10;" d="M84.1,91.6h9   C93,79.2,83,69.1,70.5,69.1S48,79.2,48,91.6h27.6"/>
	<path style="fill:none;stroke:#000000;stroke-linecap:round;stroke-linejoin:round;stroke-miterlimit:10;" d="M57.7,56.2l7.2-4.3   c1.6-1,3.7-0.6,4.9,0.9c2.4,2.9,6.9,7,13.1,6.8"/>
	<circle style="fill:none;stroke:#2BD635;stroke-miterlimit:10;" cx="93" cy="50.6" r="2.9"/>
	<circle style="fill:none;stroke:#45DBD1;stroke-miterlimit:10;" cx="44.7" cy="77.7" r="1.8"/>
	<g>
		<line style="fill:none;stroke:#FF8500;stroke-miterlimit:10;" x1="98.6" y1="77.7" x2="98.6" y2="83.1"/>
		<line style="fill:none;stroke:#FF8500;stroke-miterlimit:10;" x1="95.9" y1="80.4" x2="101.3" y2="80.4"/>
	</g>
	<g>
		<line style="fill:none;stroke:#2BD635;stroke-miterlimit:10;" x1="44.1" y1="45.2" x2="44.1" y2="47.3"/>
		<line style="fill:none;stroke:#2BD635;stroke-miterlimit:10;" x1="44.1" y1="48.5" x2="44.1" y2="50.6"/>
		<line style="fill:none;stroke:#2BD635;stroke-miterlimit:10;" x1="46.8" y1="47.9" x2="44.7" y2="47.9"/>
		<line style="fill:none;stroke:#2BD635;stroke-miterlimit:10;" x1="43.5" y1="47.9" x2="41.5" y2="47.9"/>
	</g>
	<circle style="fill:#FF8500;" cx="62.7" cy="42.1" r="1.1"/>
	<circle style="fill:#45DBD1;" cx="88.6" cy="59.5" r="0.4"/>
</g>
<g>
	<path style="fill:#F6F6F7;" d="M136.5,95.5c0-10.1,8.2-18.3,18.3-18.3s18.3,8.2,18.3,18.3"/>
	<circle style="fill:#F6F6F7;" cx="154.3" cy="66.1" r="10.4"/>
	<g>
		
			<circle style="fill:none;stroke:#000000;stroke-linecap:round;stroke-linejoin:round;stroke-miterlimit:10;" cx="153.2" cy="64.5" r="10.4"/>
		<path style="fill:none;stroke:#000000;stroke-linecap:round;stroke-linejoin:round;stroke-miterlimit:10;" d="M164.3,93.4h7.3    c0-10.1-8.2-18.3-18.3-18.3s-18.3,8.2-18.3,18.3h22.5"/>
		<path style="fill:none;stroke:#000000;stroke-linecap:round;stroke-linejoin:round;stroke-miterlimit:10;" d="M142.8,64.5l5.8-3.5    c1.3-0.8,3-0.5,4,0.7c1.9,2.3,5.6,5.7,10.7,5.5"/>
		<path style="fill:none;stroke:#000000;stroke-linecap:round;stroke-linejoin:round;stroke-miterlimit:10;" d="M166.5,58.7    c1.6-1.2,3.5-2,5.7-2c5,0,9.1,4.1,9.1,9.1s-4.1,9.1-9.1,9.1"/>
		<path style="fill:none;stroke:#000000;stroke-linecap:round;stroke-linejoin:round;stroke-miterlimit:10;" d="M181.7,90.9h6.4    c0-8.8-7.2-16-16-16c-2.1,0-4.1,0.4-5.9,1.1"/>
		<path style="fill:none;stroke:#000000;stroke-linecap:round;stroke-linejoin:round;stroke-miterlimit:10;" d="M182.1,84.5    c-0.7-1.1-1.6-2.3-2.9-3.3"/>
		<path style="fill:none;stroke:#000000;stroke-linecap:round;stroke-linejoin:round;stroke-miterlimit:10;" d="M183.6,87.8    c0,0-0.1-0.5-0.5-1.3"/>
	</g>
	<circle style="fill:none;stroke:#2BD635;stroke-miterlimit:10;" cx="174.8" cy="49.7" r="2"/>
	<circle style="fill:none;stroke:#45DBD1;stroke-miterlimit:10;" cx="134.9" cy="75.1" r="1.4"/>
	<g>
		<line style="fill:none;stroke:#FF8500;stroke-miterlimit:10;" x1="186.4" y1="75" x2="186.4" y2="77.9"/>
		<line style="fill:none;stroke:#FF8500;stroke-miterlimit:10;" x1="185" y1="76.4" x2="187.8" y2="76.4"/>
	</g>
	<g>
		<line style="fill:none;stroke:#2BD635;stroke-miterlimit:10;" x1="135.4" y1="51.5" x2="135.4" y2="53.4"/>
		<line style="fill:none;stroke:#2BD635;stroke-miterlimit:10;" x1="135.4" y1="54.5" x2="135.4" y2="56.5"/>
		<line style="fill:none;stroke:#2BD635;stroke-miterlimit:10;" x1="137.9" y1="54" x2="136" y2="54"/>
		<line style="fill:none;stroke:#2BD635;stroke-miterlimit:10;" x1="134.8" y1="54" x2="132.9" y2="54"/>
	</g>
	<circle style="fill:#FF8500;" cx="155.1" cy="47.8" r="1.2"/>
	<circle style="fill:#45DBD1;" cx="183.8" cy="64.5" r="0.5"/>
</g>
<circle style="fill:#F6F6F7;" cx="248.4" cy="78" r="22.4"/>
<path style="fill:none;stroke:#000000;stroke-linecap:round;stroke-linejoin:round;stroke-miterlimit:10;" d="M261.9,92.4  c-0.7,0.6-1.4,1.2-2.2,1.8"/>
<line style="fill:none;stroke:#000000;stroke-width:4;stroke-linecap:round;stroke-linejoin:round;stroke-miterlimit:10;" x1="244.1" y1="50.2" x2="251.2" y2="50.2"/>
<path style="fill:none;stroke:#000000;stroke-linecap:round;stroke-linejoin:round;stroke-miterlimit:10;" d="M256.1,96.3  c-2.8,1.3-6,2-9.3,2c-12.3,0-22.2-10-22.2-22.2"/>
<path style="fill:none;stroke:#000000;stroke-linecap:round;stroke-linejoin:round;stroke-miterlimit:10;" d="M225.4,70  c2.6-9.4,11.2-16.2,21.4-16.2c12.3,0,22.2,10,22.2,22.2c0,4.7-1.5,9.1-4,12.7"/>
<polyline style="fill:none;stroke:#000000;stroke-linecap:round;stroke-linejoin:round;stroke-miterlimit:10;" points="238,68.2   247.3,76 261.9,67.8 "/>
<path style="fill:none;stroke:#FFFFFF;stroke-linecap:round;stroke-linejoin:round;stroke-miterlimit:10;" d="M232.3,83.3  c-0.7-1.7-1.1-3.5-1.1-5.5"/>
<path style="fill:none;stroke:#FFFFFF;stroke-linecap:round;stroke-linejoin:round;stroke-miterlimit:10;" d="M246,92.5  c-4.6,0-8.6-2.1-11.3-5.4"/>
<line style="fill:none;stroke:#000000;stroke-width:2;stroke-linecap:round;stroke-linejoin:round;stroke-miterlimit:10;" x1="268.6" y1="63.2" x2="270.3" y2="66.5"/>
<circle style="fill:none;stroke:#2BD635;stroke-miterlimit:10;" cx="258.1" cy="43.2" r="2"/>
<circle style="fill:none;stroke:#45DBD1;stroke-miterlimit:10;" cx="234.6" cy="48.9" r="1.3"/>
<g>
	<line style="fill:none;stroke:#FF8500;stroke-miterlimit:10;" x1="275.5" y1="67.8" x2="275.5" y2="73.1"/>
	<line style="fill:none;stroke:#FF8500;stroke-miterlimit:10;" x1="272.8" y1="70.5" x2="278.2" y2="70.5"/>
</g>
<g>
	<line style="fill:none;stroke:#2BD635;stroke-miterlimit:10;" x1="218.6" y1="71.3" x2="218.6" y2="72.7"/>
	<line style="fill:none;stroke:#2BD635;stroke-miterlimit:10;" x1="218.6" y1="73.6" x2="218.6" y2="75"/>
	<line style="fill:none;stroke:#2BD635;stroke-miterlimit:10;" x1="220.4" y1="73.1" x2="219" y2="73.1"/>
	<line style="fill:none;stroke:#2BD635;stroke-miterlimit:10;" x1="218.2" y1="73.1" x2="216.8" y2="73.1"/>
</g>
<circle style="fill:#FF8500;" cx="219.7" cy="52.7" r="0.8"/>
<circle style="fill:#45DBD1;" cx="260" cy="53.8" r="0.3"/>
<circle style="fill:#45DBD1;" cx="274" cy="87.2" r="0.3"/>
<circle style="fill:#D2D4D5;" cx="247.3" cy="76.2" r="2.4"/>
<g>
	<path style="fill:#F6F6F7;" d="M349,93.2c-3.6,0-10.9-1.4-20.5-10.9l0,0l-0.1-0.1l0,0c-10.7-10.8-11.2-18.7-10.9-21.6   c0.1-0.7,0.5-1.4,1.1-1.9l4.7-3.5c0.6-0.5,1.4-0.6,2.1-0.5c0.7,0.2,1.4,0.6,1.8,1.3l5.6,9.9c0.6,1.1,0.3,2.6-0.7,3.4l-2.7,2.1   c0,0,0,0,0,0c0.5,1.8,8.1,9.4,9.9,9.9h0c0,0,0,0,0,0l2.1-2.7c0.8-1,2.3-1.3,3.4-0.7l9.9,5.6c0.7,0.4,1.1,1,1.3,1.8   c0.2,0.7,0,1.5-0.5,2.1l-3.5,4.7c-0.4,0.6-1.1,1-1.9,1.1C349.8,93.2,349.5,93.2,349,93.2z M329.3,71.4L329.3,71.4L329.3,71.4z"/>
	<circle style="fill:none;stroke:#2BD635;stroke-miterlimit:10;" cx="356" cy="40.9" r="2.8"/>
	<circle style="fill:none;stroke:#45DBD1;stroke-miterlimit:10;" cx="322.1" cy="42.6" r="1.8"/>
	<g>
		<line style="fill:none;stroke:#FF8500;stroke-miterlimit:10;" x1="368.6" y1="75.1" x2="368.6" y2="80.3"/>
		<line style="fill:none;stroke:#FF8500;stroke-miterlimit:10;" x1="366" y1="77.7" x2="371.2" y2="77.7"/>
	</g>
	<g>
		<line style="fill:none;stroke:#2BD635;stroke-miterlimit:10;" x1="309.9" y1="75.9" x2="309.9" y2="77.9"/>
		<line style="fill:none;stroke:#2BD635;stroke-miterlimit:10;" x1="309.9" y1="79.1" x2="309.9" y2="81.1"/>
		<line style="fill:none;stroke:#2BD635;stroke-miterlimit:10;" x1="312.5" y1="78.5" x2="310.4" y2="78.5"/>
		<line style="fill:none;stroke:#2BD635;stroke-miterlimit:10;" x1="309.3" y1="78.5" x2="307.3" y2="78.5"/>
	</g>
	<circle style="fill:#FF8500;" cx="306.2" cy="54.7" r="1.1"/>
	<circle style="fill:#45DBD1;" cx="371" cy="47.6" r="0.4"/>
	<g>
		<path style="fill:none;stroke:#000000;stroke-miterlimit:10;" d="M346.8,94.5c-3.6,0-10.9-1.4-20.5-10.9l0,0l-0.1-0.1l0,0    c-10.7-10.8-11.2-18.7-10.9-21.6c0.1-0.7,0.5-1.4,1.1-1.9l4.7-3.5c0.6-0.5,1.4-0.6,2.1-0.5c0.7,0.2,1.4,0.6,1.8,1.3l5.6,9.9    c0.6,1.1,0.3,2.6-0.7,3.4l-2.7,2.1c0,0,0,0,0,0c0.5,1.8,8.1,9.4,9.9,9.9h0c0,0,0,0,0,0l2.1-2.7c0.8-1,2.3-1.3,3.4-0.7l9.9,5.6    c0.7,0.4,1.1,1,1.3,1.8c0.2,0.7,0,1.5-0.5,2.1l-3.5,4.7c-0.4,0.6-1.1,1-1.9,1.1C347.7,94.5,347.3,94.5,346.8,94.5z M327.1,72.7    L327.1,72.7L327.1,72.7z"/>
		<path style="fill:none;stroke:#000000;stroke-miterlimit:10;" d="M348.6,75.6c-0.2,0-0.4,0-0.7-0.1c-0.9-0.4-1.3-1.4-1-2.3    c1.2-3,0.5-6.3-1.7-8.6c-2.3-2.3-5.6-3-8.6-1.7c-0.9,0.4-1.9-0.1-2.3-1c-0.4-0.9,0.1-1.9,1-2.3c4.3-1.7,9.1-0.7,12.4,2.5    c3.3,3.3,4.2,8.1,2.5,12.4C350,75.2,349.3,75.6,348.6,75.6z"/>
		<path style="fill:none;stroke:#000000;stroke-miterlimit:10;" d="M358.2,75.4c-0.1,0-0.2,0-0.3,0c-0.9-0.2-1.6-1.1-1.4-2    c1-5.5-0.7-11.2-4.7-15.2c-4-4-9.6-5.7-15.2-4.7c-1,0.2-1.9-0.5-2-1.4c-0.2-1,0.5-1.9,1.4-2c6.7-1.2,13.5,0.9,18.3,5.7    c4.8,4.8,6.9,11.7,5.7,18.3C359.7,74.8,359,75.4,358.2,75.4z"/>
	</g>
</g>
<path style="fill:#F6F6F7;" d="M41.9,169.7h32.5c0,0-0.4,6.5,2.4,5.7H43.6c0,0-1.2,0-1.6-1.6V169.7z"/>
<path style="fill:none;stroke:#000000;stroke-linecap:round;stroke-linejoin:round;stroke-miterlimit:10;" d="M46.2,170.9h-5.9v2.8  c0,1.8,1.4,3.2,3.2,3.2h34.1"/>
<path style="fill:#F6F6F7;" d="M88.4,135.3h-7.6v-2.8c0-2.1,1.7-3.8,3.7-3.8h0c2,0,3.7,1.6,3.8,3.7L88.4,135.3z"/>
<circle style="fill:none;stroke:#2BD635;stroke-linecap:round;stroke-linejoin:round;stroke-miterlimit:10;" cx="91.3" cy="126.1" r="2.2"/>
<circle style="fill:none;stroke:#45DBD1;stroke-linecap:round;stroke-linejoin:round;stroke-miterlimit:10;" cx="54" cy="120.2" r="1.6"/>
<g>
	
		<line style="fill:none;stroke:#FF8500;stroke-linecap:round;stroke-linejoin:round;stroke-miterlimit:10;" x1="95.5" y1="149.8" x2="91.9" y2="153.4"/>
	
		<line style="fill:none;stroke:#FF8500;stroke-linecap:round;stroke-linejoin:round;stroke-miterlimit:10;" x1="91.9" y1="149.8" x2="95.5" y2="153.4"/>
</g>
<g>
	
		<line style="fill:none;stroke:#2BD635;stroke-linecap:round;stroke-linejoin:round;stroke-miterlimit:10;" x1="38.3" y1="133.5" x2="38.3" y2="135.4"/>
	
		<line style="fill:none;stroke:#2BD635;stroke-linecap:round;stroke-linejoin:round;stroke-miterlimit:10;" x1="38.3" y1="136.4" x2="38.3" y2="138.3"/>
	
		<line style="fill:none;stroke:#2BD635;stroke-linecap:round;stroke-linejoin:round;stroke-miterlimit:10;" x1="40.7" y1="135.9" x2="38.8" y2="135.9"/>
	
		<line style="fill:none;stroke:#2BD635;stroke-linecap:round;stroke-linejoin:round;stroke-miterlimit:10;" x1="37.7" y1="135.9" x2="35.9" y2="135.9"/>
</g>
<circle style="fill:#FF8500;" cx="38.3" cy="151.9" r="1"/>
<circle style="fill:#45DBD1;" cx="93.5" cy="139.1" r="0.4"/>
<path style="fill:#F6F6F7;" d="M73.2,149c0,3.8,3.1,6.9,6.9,6.9c0.2,0,0.5,0,0.7,0v12.7H50.9v-31.8c0-2.2,1.7-3.9,3.9-3.9h26v9.4  c-0.2,0-0.5,0-0.7,0C76.3,142.1,73.2,145.2,73.2,149z"/>
<circle style="fill:#F6F6F7;" cx="80.1" cy="149" r="6.9"/>
<path style="fill:none;stroke:#000000;stroke-linecap:round;stroke-linejoin:round;stroke-miterlimit:10;" d="M80.8,160.6v12.5  c0,2.1-1.7,3.8-3.8,3.8h0c-2.1,0-3.8-1.7-3.8-3.8v-2.2H46.2v-36.7c0-3,2.4-5.4,5.4-5.4h32.9"/>
<path style="fill:none;stroke:#000000;stroke-linecap:round;stroke-linejoin:round;stroke-miterlimit:10;" d="M80.8,139.9v-7.4  c0-2.1,1.7-3.8,3.8-3.8h0c2.1,0,3.8,1.7,3.8,3.8v3.9h-3.9"/>
<path style="fill:#FFFFFF;" d="M64.5,143.3H53.9c-0.3,0-0.6-0.3-0.6-0.6l0,0c0-0.3,0.3-0.6,0.6-0.6h10.5c0.3,0,0.6,0.3,0.6,0.6l0,0  C65.1,143,64.8,143.3,64.5,143.3z"/>
<path style="fill:none;stroke:#000000;stroke-linecap:round;stroke-linejoin:round;stroke-miterlimit:10;" d="M64.5,143.3H53.9  c-0.3,0-0.6-0.3-0.6-0.6l0,0c0-0.3,0.3-0.6,0.6-0.6"/>
<path style="fill:#FFFFFF;" d="M69.7,151.4H53.9c-0.3,0-0.6-0.3-0.6-0.6l0,0c0-0.3,0.3-0.6,0.6-0.6h15.8c0.3,0,0.6,0.3,0.6,0.6l0,0  C70.3,151.1,70.1,151.4,69.7,151.4z"/>
<path style="fill:none;stroke:#000000;stroke-linecap:round;stroke-linejoin:round;stroke-miterlimit:10;" d="M69.7,151.4H53.9  c-0.3,0-0.6-0.3-0.6-0.6l0,0c0-0.3,0.3-0.6,0.6-0.6"/>
<path style="fill:#D2D4D5;" d="M89.1,161l-4.6-6.7C86,153,87,151.1,87,149c0-3.8-3.1-6.9-6.9-6.9s-6.9,3.1-6.9,6.9  c0,1.7,0.6,3.3,1.7,4.5l-0.1,0l-5.1,7.5l4.3-1.8l0,4.6l5.4-8l-0.1,0c0.1,0,0.1,0,0.2,0l-0.1,0l5.4,8l0-4.6L89.1,161z"/>
<g>
	<path style="fill:none;stroke:#000000;stroke-linecap:round;stroke-linejoin:round;stroke-miterlimit:10;" d="M135,141.7V133   c0-1.4,1.1-2.5,2.5-2.5h7"/>
	
		<line style="fill:none;stroke:#000000;stroke-linecap:round;stroke-linejoin:round;stroke-miterlimit:10;" x1="135" y1="154.9" x2="135" y2="144.9"/>
	<path style="fill:#D2D4D5;" d="M165.2,131.7H150c-0.7,0-1.2-0.5-1.2-1.2c0-0.7,0.5-1.2,1.2-1.2h15.2c0.7,0,1.2,0.5,1.2,1.2   C166.4,131.2,165.9,131.7,165.2,131.7z"/>
	<path style="fill:#F6F6F7;" d="M183.5,138v39c0,1.6-1.3,3-3,3h-38.6c-1.7,0-3-1.3-3-3v-39c0-1.7,1.3-3,3-3h38.6   C182.2,135,183.5,136.3,183.5,138z"/>
	
		<polyline style="fill:none;stroke:#000000;stroke-width:2;stroke-linecap:round;stroke-linejoin:round;stroke-miterlimit:10;" points="   151.2,156.3 155.6,161.6 171,149.7  "/>
	
		<circle style="fill:none;stroke:#2BD635;stroke-linecap:round;stroke-linejoin:round;stroke-miterlimit:10;" cx="166.1" cy="120.3" r="1.8"/>
	<circle style="fill:#45DBD1;" cx="190.5" cy="143.3" r="1.6"/>
	<g>
		
			<line style="fill:none;stroke:#2BD635;stroke-linecap:round;stroke-linejoin:round;stroke-miterlimit:10;" x1="127" y1="167.7" x2="127" y2="169.4"/>
		
			<line style="fill:none;stroke:#2BD635;stroke-linecap:round;stroke-linejoin:round;stroke-miterlimit:10;" x1="127" y1="170.5" x2="127" y2="172.3"/>
		
			<line style="fill:none;stroke:#2BD635;stroke-linecap:round;stroke-linejoin:round;stroke-miterlimit:10;" x1="129.4" y1="170" x2="127.6" y2="170"/>
		
			<line style="fill:none;stroke:#2BD635;stroke-linecap:round;stroke-linejoin:round;stroke-miterlimit:10;" x1="126.5" y1="170" x2="124.7" y2="170"/>
	</g>
	<circle style="fill:#FF8500;" cx="124" cy="134.6" r="1"/>
	<path style="fill:none;stroke:#000000;stroke-linecap:round;stroke-linejoin:round;stroke-miterlimit:10;" d="M180.4,171.6v3.3   c0,1.4-1.1,2.5-2.5,2.5h-40.4c-1.4,0-2.5-1.1-2.5-2.5v-17.2"/>
	<path style="fill:none;stroke:#000000;stroke-linecap:round;stroke-linejoin:round;stroke-miterlimit:10;" d="M170.6,130.5h7.3   c1.4,0,2.5,1.1,2.5,2.5v33.1"/>
	<path style="fill:#D2D4D5;" d="M153.1,129.5c0-2.5,2-4.5,4.5-4.5c2.5,0,4.5,2,4.5,4.5"/>
</g>
<g>
	<g>
		<path style="fill:#F6F6F7;" d="M233.2,144.7l6.7,23.6h30.6c0,0,3.6,0.6,4.4-2.4l4-16.3c0.2-0.7,0.2-1.4-0.1-2.1    c-0.4-1.2-1.4-2.8-3.8-2.8H233.2z"/>
		<g>
			<circle style="fill:#D2D4D5;" cx="248.4" cy="183.4" r="4.6"/>
			<circle style="fill:#D2D4D5;" cx="270.4" cy="183.4" r="4.6"/>
		</g>
		<g>
			<g>
				
					<circle style="fill:none;stroke:#000000;stroke-linecap:round;stroke-linejoin:round;stroke-miterlimit:10;" cx="245" cy="183.4" r="4.6"/>
				
					<circle style="fill:none;stroke:#000000;stroke-linecap:round;stroke-linejoin:round;stroke-miterlimit:10;" cx="267.1" cy="183.4" r="4.6"/>
				<path style="fill:none;stroke:#000000;stroke-linecap:round;stroke-linejoin:round;stroke-miterlimit:10;" d="M257.4,174.5h13"/>
				<path style="fill:none;stroke:#000000;stroke-linecap:round;stroke-linejoin:round;stroke-miterlimit:10;" d="M252.9,174.5"/>
				<path style="fill:none;stroke:#000000;stroke-linecap:round;stroke-linejoin:round;stroke-miterlimit:10;" d="M257.1,174.5"/>
				<path style="fill:none;stroke:#000000;stroke-linecap:round;stroke-linejoin:round;stroke-miterlimit:10;" d="M254.5,174.5h0.2"/>
				<path style="fill:none;stroke:#000000;stroke-linecap:round;stroke-linejoin:round;stroke-miterlimit:10;" d="M214.7,135.1h8.8      c2,0,3.7,1.3,4.2,3.2l9.6,33.1c0.5,1.8,2.2,3.2,4.2,3.2h10.4"/>
				<path style="fill:none;stroke:#000000;stroke-linecap:round;stroke-linejoin:round;stroke-miterlimit:10;" d="M229.8,144.7h41.9      c2.6,0,4.6,2.5,4,5.1l-3.8,15.5c-0.5,1.8-2.1,3.1-4,3.1h-31.3"/>
			</g>
			
				<line style="fill:none;stroke:#000000;stroke-linecap:round;stroke-linejoin:round;stroke-miterlimit:10;" x1="228.8" y1="161.1" x2="272.8" y2="161.1"/>
			<polyline style="fill:none;stroke:#000000;stroke-linecap:round;stroke-linejoin:round;stroke-miterlimit:10;" points="     263.9,153.1 270.8,153.1 268.8,153.1    "/>
			
				<line style="fill:none;stroke:#000000;stroke-linecap:round;stroke-linejoin:round;stroke-miterlimit:10;" x1="256.4" y1="153.1" x2="264.5" y2="153.1"/>
			
				<line style="fill:none;stroke:#000000;stroke-linecap:round;stroke-linejoin:round;stroke-miterlimit:10;" x1="225.8" y1="153.1" x2="251.3" y2="153.1"/>
			
				<line style="fill:none;stroke:#000000;stroke-linecap:round;stroke-linejoin:round;stroke-miterlimit:10;" x1="223.7" y1="153.1" x2="217.8" y2="153.1"/>
			
				<line style="fill:none;stroke:#000000;stroke-linecap:round;stroke-linejoin:round;stroke-miterlimit:10;" x1="226.4" y1="161.3" x2="224.7" y2="161.3"/>
			
				<line style="fill:none;stroke:#000000;stroke-linecap:round;stroke-linejoin:round;stroke-miterlimit:10;" x1="222.6" y1="161.3" x2="217.4" y2="161.3"/>
			
				<circle style="fill:none;stroke:#000000;stroke-linecap:round;stroke-linejoin:round;stroke-miterlimit:10;" cx="213.1" cy="135.1" r="1.5"/>
			
				<circle style="fill:none;stroke:#000000;stroke-linecap:round;stroke-linejoin:round;stroke-miterlimit:10;" cx="271.9" cy="174.5" r="1.5"/>
			
				<line style="fill:none;stroke:#000000;stroke-linecap:round;stroke-linejoin:round;stroke-miterlimit:10;" x1="254" y1="147.1" x2="254" y2="168.3"/>
			
				<line style="fill:none;stroke:#000000;stroke-linecap:round;stroke-linejoin:round;stroke-miterlimit:10;" x1="240.9" y1="144.7" x2="240.9" y2="168.3"/>
			
				<line style="fill:none;stroke:#000000;stroke-linecap:round;stroke-linejoin:round;stroke-miterlimit:10;" x1="267.2" y1="168.3" x2="267.2" y2="144.7"/>
		</g>
	</g>
	<g>
		<g>
			<g>
				
					<circle style="fill:none;stroke:#2BD635;stroke-linecap:round;stroke-linejoin:round;stroke-miterlimit:10;" cx="258.4" cy="129" r="3.2"/>
				<g>
					
						<line style="fill:none;stroke:#FF8500;stroke-linecap:round;stroke-linejoin:round;stroke-miterlimit:10;" x1="287.1" y1="151.4" x2="287.1" y2="158"/>
					
						<line style="fill:none;stroke:#FF8500;stroke-linecap:round;stroke-linejoin:round;stroke-miterlimit:10;" x1="283.8" y1="154.7" x2="290.4" y2="154.7"/>
				</g>
				<g>
					
						<line style="fill:none;stroke:#2BD635;stroke-linecap:round;stroke-linejoin:round;stroke-miterlimit:10;" x1="224.6" y1="170.7" x2="224.2" y2="170.7"/>
					
						<line style="fill:none;stroke:#2BD635;stroke-linecap:round;stroke-linejoin:round;stroke-miterlimit:10;" x1="221.3" y1="170.7" x2="220.9" y2="170.7"/>
					
						<line style="fill:none;stroke:#2BD635;stroke-linecap:round;stroke-linejoin:round;stroke-miterlimit:10;" x1="222.8" y1="172.6" x2="222.8" y2="172.2"/>
					
						<line style="fill:none;stroke:#2BD635;stroke-linecap:round;stroke-linejoin:round;stroke-miterlimit:10;" x1="222.8" y1="169.3" x2="222.8" y2="168.9"/>
				</g>
				<circle style="fill:#FF8500;" cx="220.9" cy="125.1" r="1.2"/>
				<circle style="fill:#45DBD1;" cx="264.3" cy="138.5" r="0.5"/>
			</g>
		</g>
	</g>
</g>
<g>
	<g>
		
			<line style="fill:none;stroke:#000000;stroke-linecap:round;stroke-linejoin:round;stroke-miterlimit:10;" x1="317.3" y1="152.1" x2="317.3" y2="147.7"/>
		<path style="fill:#F6F6F7;" d="M369.2,136.1v41.6c0,1.8-1.4,3.2-3.2,3.2h-41.2c-1.8,0-3.2-1.4-3.2-3.2v-41.6    c0-1.8,1.4-3.2,3.2-3.2H366C367.7,132.9,369.2,134.4,369.2,136.1z"/>
		<path style="fill:none;stroke:#000000;stroke-linecap:round;stroke-linejoin:round;stroke-miterlimit:10;" d="M365.8,172.1v3.6    c0,1.5-1.2,2.7-2.7,2.7H320c-1.5,0-2.7-1.2-2.7-2.7v-18.3"/>
		<g>
			<path d="M342,159.6c0,1.2-0.1,2.3-0.2,3.2c-0.1,0.9-0.4,1.7-0.8,2.4c-0.5,0.9-1.2,1.6-2,2s-1.7,0.7-2.7,0.7c-1.1,0-2.2-0.3-3.1-1     c-0.9-0.6-1.6-1.5-2-2.7c-0.2-0.6-0.4-1.3-0.5-2.1c-0.1-0.8-0.2-1.6-0.2-2.4c0-1.1,0.1-2.1,0.2-3.1c0.1-0.9,0.3-1.7,0.6-2.3     c0.4-1.1,1.1-1.9,1.9-2.5c0.8-0.6,1.8-0.8,3-0.8c0.8,0,1.5,0.1,2.1,0.4c0.6,0.3,1.2,0.6,1.7,1.1s0.9,1.1,1.2,1.8     C341.7,155.6,342,157.3,342,159.6z M338.9,159.4c0-1.4-0.1-2.5-0.2-3.4c-0.2-0.9-0.4-1.5-0.8-2s-0.9-0.7-1.6-0.7     c-1,0-1.7,0.5-2.1,1.5s-0.6,2.5-0.6,4.6c0,1.4,0.1,2.6,0.2,3.5s0.4,1.6,0.8,2c0.4,0.5,0.9,0.7,1.6,0.7c0.7,0,1.2-0.2,1.6-0.7     s0.7-1.2,0.8-2.1C338.8,162,338.9,160.8,338.9,159.4z"/>
			<path d="M349.5,166.1v-10.2c-1.9,1.5-3.2,2.2-3.8,2.2c-0.3,0-0.6-0.1-0.8-0.4c-0.2-0.3-0.4-0.5-0.4-0.9c0-0.4,0.1-0.7,0.4-0.8     s0.7-0.4,1.3-0.7c0.9-0.4,1.6-0.9,2.2-1.3c0.5-0.5,1-1,1.4-1.6s0.7-0.9,0.8-1.1c0.1-0.1,0.4-0.2,0.7-0.2c0.4,0,0.7,0.2,1,0.5     c0.2,0.3,0.4,0.7,0.4,1.3v12.8c0,1.5-0.5,2.3-1.5,2.3c-0.5,0-0.8-0.2-1.1-0.5C349.7,167.2,349.5,166.7,349.5,166.1z"/>
		</g>
		<g>
			
				<circle style="fill:none;stroke:#2BD635;stroke-linecap:round;stroke-linejoin:round;stroke-miterlimit:10;" cx="369.4" cy="117" r="3.2"/>
			<g>
				
					<line style="fill:none;stroke:#FF8500;stroke-linecap:round;stroke-linejoin:round;stroke-miterlimit:10;" x1="374.1" y1="152.4" x2="374.1" y2="159"/>
				
					<line style="fill:none;stroke:#FF8500;stroke-linecap:round;stroke-linejoin:round;stroke-miterlimit:10;" x1="370.8" y1="155.7" x2="377.4" y2="155.7"/>
			</g>
			<g>
				
					<line style="fill:none;stroke:#2BD635;stroke-linecap:round;stroke-linejoin:round;stroke-miterlimit:10;" x1="306.8" y1="120.7" x2="306.8" y2="123.1"/>
				
					<line style="fill:none;stroke:#2BD635;stroke-linecap:round;stroke-linejoin:round;stroke-miterlimit:10;" x1="306.8" y1="124.4" x2="306.8" y2="126.8"/>
				
					<line style="fill:none;stroke:#2BD635;stroke-linecap:round;stroke-linejoin:round;stroke-miterlimit:10;" x1="309.8" y1="123.7" x2="307.5" y2="123.7"/>
				
					<line style="fill:none;stroke:#2BD635;stroke-linecap:round;stroke-linejoin:round;stroke-miterlimit:10;" x1="306.1" y1="123.7" x2="303.7" y2="123.7"/>
			</g>
			<circle style="fill:#FF8500;" cx="307.9" cy="146.1" r="1.2"/>
			<circle style="fill:#45DBD1;" cx="375.3" cy="126.5" r="0.5"/>
		</g>
		<path style="fill:none;stroke:#000000;stroke-linecap:round;stroke-linejoin:round;stroke-miterlimit:10;" d="M365.8,166.2v-35.3    c0-1.5-1.2-2.7-2.7-2.7H320c-1.5,0-2.7,1.2-2.7,2.7v9.3h48.5"/>
	</g>
	
		<line style="fill:none;stroke:#000000;stroke-linecap:round;stroke-linejoin:round;stroke-miterlimit:10;" x1="327.6" y1="124.4" x2="327.6" y2="131.7"/>
	
		<line style="fill:none;stroke:#000000;stroke-linecap:round;stroke-linejoin:round;stroke-miterlimit:10;" x1="355.6" y1="124.4" x2="355.6" y2="131.7"/>
</g>
<g>
	
		<line style="fill:none;stroke:#4C3A30;stroke-linecap:round;stroke-linejoin:round;stroke-miterlimit:10;" x1="59.9" y1="240.2" x2="60.3" y2="239.8"/>
	<path style="fill:#F4F4F4;" d="M55.6,253.7c2.5,2.5,2.5,6.6,0,9.1c0,0,0,0,0,0l3.1,3.1c0.7,0.7,1.8,0.7,2.5,0l27.7-27.7   c0.7-0.7,0.7-1.8,0-2.5l-3.1-3.1c-2.5,2.5-6.6,2.5-9.1,0c-1.9-1.9-2.4-4.7-1.4-7c0.6-1.6,0.2-3.4-1-4.6l-0.7-0.7   c-0.7-0.7-1.8-0.7-2.5,0l-27.7,27.7c-0.7,0.7-0.7,1.8,0,2.5l3.1,3.1c0,0,0,0,0,0C48.9,251.1,53,251.2,55.6,253.7z"/>
	
		<line style="fill:none;stroke:#000000;stroke-linecap:round;stroke-linejoin:round;stroke-miterlimit:10;" x1="48.8" y1="240.5" x2="49.2" y2="240.1"/>
	<path style="fill:none;stroke:#000000;stroke-linecap:round;stroke-linejoin:round;stroke-miterlimit:10;" d="M73.9,251.2   l-12.4,12.4c-0.7,0.7-1.8,0.7-2.5,0l-3.1-3.1c0,0,0,0,0,0c2.5-2.5,2.5-6.6,0-9.1c-2.5-2.5-6.6-2.5-9.1,0c0,0,0,0,0,0l-3.1-3.1   c-0.7-0.7-0.7-1.8,0-2.5l3.5-3.5"/>
	
		<line style="fill:none;stroke:#000000;stroke-linecap:round;stroke-linejoin:round;stroke-miterlimit:10;" x1="76.9" y1="248.2" x2="76" y2="249.1"/>
	<path style="fill:none;stroke:#000000;stroke-linecap:round;stroke-linejoin:round;stroke-miterlimit:10;" d="M51.2,238.1L71.3,218   c0.7-0.7,1.8-0.7,2.5,0l3.1,3.1c-2.5,2.5-2.5,6.6,0,9.1c2.5,2.5,6.6,2.5,9.1,0l3.1,3.1c0.7,0.7,0.7,1.8,0,2.5L79.1,246"/>
	<g>
		<g>
			
				<line style="fill:none;stroke:#000000;stroke-linecap:round;stroke-linejoin:round;" x1="64.4" y1="228.1" x2="66.2" y2="229.8"/>
			
				<line style="fill:none;stroke:#000000;stroke-linecap:round;stroke-linejoin:round;stroke-dasharray:6.1977,4.9582;" x1="69.7" y1="233.3" x2="75.8" y2="239.5"/>
			<line style="fill:none;stroke:#000000;stroke-linecap:round;stroke-linejoin:round;" x1="77.5" y1="241.2" x2="79.3" y2="243"/>
		</g>
	</g>
	<circle style="fill:none;stroke:#2BD635;stroke-miterlimit:10;" cx="81.1" cy="208.1" r="2.4"/>
	<circle style="fill:none;stroke:#45DBD1;stroke-miterlimit:10;" cx="97" cy="225.6" r="1.6"/>
	<g>
		<line style="fill:none;stroke:#FF8500;stroke-miterlimit:10;" x1="92.7" y1="251.2" x2="92.7" y2="257.8"/>
		<line style="fill:none;stroke:#FF8500;stroke-miterlimit:10;" x1="89.4" y1="254.5" x2="96" y2="254.5"/>
	</g>
	<g>
		<line style="fill:none;stroke:#2BD635;stroke-miterlimit:10;" x1="42.8" y1="254.5" x2="42.8" y2="256.3"/>
		<line style="fill:none;stroke:#2BD635;stroke-miterlimit:10;" x1="42.8" y1="257.3" x2="42.8" y2="259.1"/>
		<line style="fill:none;stroke:#2BD635;stroke-miterlimit:10;" x1="45.1" y1="256.8" x2="43.3" y2="256.8"/>
		<line style="fill:none;stroke:#2BD635;stroke-miterlimit:10;" x1="42.3" y1="256.8" x2="40.5" y2="256.8"/>
	</g>
	<circle style="fill:#FF8500;" cx="29.9" cy="222.1" r="0.9"/>
	<circle style="fill:#45DBD1;" cx="28.9" cy="240" r="0.4"/>
	<path style="fill:none;stroke:#000000;stroke-linecap:round;stroke-linejoin:round;stroke-miterlimit:10;" d="M42.7,240.6v-28.4   c0-1,0.8-1.8,1.8-1.8h4.4c0,3.6,2.9,6.5,6.5,6.5c3.6,0,6.5-2.9,6.5-6.5h4.4c1,0,1.8,0.8,1.8,1.8v5.3"/>
</g>
<g>
</g>
<g>
</g>
<g>
</g>
<g>
</g>
<g>
</g>
<g>
</g>
<g>
</g>
<g>
</g>
<g>
</g>
<g>
</g>
<g>
</g>
<g>
</g>
<g>
</g>
<g>
</g>
<g>
</g>
</svg>