<?xml version="1.0" standalone="no"?>
<!DOCTYPE svg PUBLIC "-//W3C//DTD SVG 20010904//EN"
 "http://www.w3.org/TR/2001/REC-SVG-20010904/DTD/svg10.dtd">
<svg version="1.0" xmlns="http://www.w3.org/2000/svg"
 width="100.000000pt" height="100.000000pt" viewBox="0 0 100.000000 100.000000"
 preserveAspectRatio="xMidYMid meet">
<metadata>
Created by potrace 1.11, written by Peter Selinger 2001-2013
</metadata>
<g transform="translate(0.000000,100.000000) scale(0.100000,-0.100000)"
fill="#000000" stroke="none">
<path d="M72 979 c-69 -31 -67 -15 -68 -516 -1 -406 1 -453 15 -457 9 -2 72
-4 141 -3 l125 2 0 495 0 494 -88 1 c-63 1 -99 -4 -125 -16z"/>
<path d="M439 986 c-19 -6 -43 -26 -56 -45 l-23 -34 0 -452 0 -452 133 1 c72
1 137 4 142 8 6 4 10 164 9 452 -1 484 0 473 -58 511 -30 20 -104 25 -147 11z"/>
<path d="M719 990 c-1 -3 -2 -226 -3 -496 l-1 -491 140 1 140 1 2 440 c2 291
-1 451 -8 472 -19 58 -57 76 -170 77 -54 1 -100 -1 -100 -4z"/>
</g>
</svg>
